%TF.GenerationSoftware,KiCad,Pcbnew,(5.1.6)-1*%
%TF.CreationDate,2022-01-16T04:32:38+08:00*%
%TF.ProjectId,esp32s2-uart,65737033-3273-4322-9d75-6172742e6b69,rev?*%
%TF.SameCoordinates,Original*%
%TF.FileFunction,Legend,Bot*%
%TF.FilePolarity,Positive*%
%FSLAX46Y46*%
G04 Gerber Fmt 4.6, Leading zero omitted, Abs format (unit mm)*
G04 Created by KiCad (PCBNEW (5.1.6)-1) date 2022-01-16 04:32:38*
%MOMM*%
%LPD*%
G01*
G04 APERTURE LIST*
%ADD10C,0.120000*%
%ADD11C,0.150000*%
G04 APERTURE END LIST*
D10*
X10700000Y13500000D02*
X10700000Y11900000D01*
X7000000Y13500000D02*
X10700000Y13500000D01*
X7000000Y11900000D02*
X7000000Y13500000D01*
X10700000Y11900000D02*
X7000000Y11900000D01*
D11*
X7376190Y12252381D02*
X7709523Y13252381D01*
X8042857Y12252381D01*
X8899999Y13252381D02*
X8328571Y13252381D01*
X8614285Y13252381D02*
X8614285Y12252381D01*
X8519047Y12395239D01*
X8423809Y12490477D01*
X8328571Y12538096D01*
X9328571Y13157143D02*
X9376190Y13204762D01*
X9328571Y13252381D01*
X9280952Y13204762D01*
X9328571Y13157143D01*
X9328571Y13252381D01*
X9995238Y12252381D02*
X10090476Y12252381D01*
X10185714Y12300000D01*
X10233333Y12347620D01*
X10280952Y12442858D01*
X10328571Y12633334D01*
X10328571Y12871429D01*
X10280952Y13061905D01*
X10233333Y13157143D01*
X10185714Y13204762D01*
X10090476Y13252381D01*
X9995238Y13252381D01*
X9899999Y13204762D01*
X9852380Y13157143D01*
X9804761Y13061905D01*
X9757142Y12871429D01*
X9757142Y12633334D01*
X9804761Y12442858D01*
X9852380Y12347620D01*
X9899999Y12300000D01*
X9995238Y12252381D01*
D10*
%TO.C,D5*%
X25084000Y8441200D02*
X23184000Y8441200D01*
X23684000Y10761200D02*
X25084000Y10761200D01*
%TO.C,D4*%
X25084000Y2904000D02*
X23184000Y2904000D01*
X23684000Y5224000D02*
X25084000Y5224000D01*
%TO.C,TP3*%
X19673800Y3581400D02*
G75*
G03*
X19673800Y3581400I-700000J0D01*
G01*
%TO.C,U2*%
X8548800Y10296800D02*
X10348800Y10296800D01*
X10348800Y7076800D02*
X7898800Y7076800D01*
%TO.C,U1*%
X15956200Y7194600D02*
X15956200Y5934600D01*
X15956200Y374600D02*
X15956200Y1634600D01*
X12196200Y7194600D02*
X15956200Y7194600D01*
X9946200Y374600D02*
X15956200Y374600D01*
%TO.C,C2*%
X8847000Y1815021D02*
X8847000Y2140579D01*
X7827000Y1815021D02*
X7827000Y2140579D01*
%TO.C,C1*%
X8847000Y5117021D02*
X8847000Y5442579D01*
X7827000Y5117021D02*
X7827000Y5442579D01*
%TD*%
M02*
