%TF.GenerationSoftware,KiCad,Pcbnew,(5.1.6)-1*%
%TF.CreationDate,2022-01-17T15:46:57+08:00*%
%TF.ProjectId,esp32s2-uart,65737033-3273-4322-9d75-6172742e6b69,rev?*%
%TF.SameCoordinates,Original*%
%TF.FileFunction,Legend,Bot*%
%TF.FilePolarity,Positive*%
%FSLAX46Y46*%
G04 Gerber Fmt 4.6, Leading zero omitted, Abs format (unit mm)*
G04 Created by KiCad (PCBNEW (5.1.6)-1) date 2022-01-17 15:46:57*
%MOMM*%
%LPD*%
G01*
G04 APERTURE LIST*
%ADD10C,0.120000*%
%ADD11C,0.130000*%
%ADD12C,0.010000*%
G04 APERTURE END LIST*
D10*
X26319480Y13314680D02*
X26319480Y12075160D01*
X22931120Y13314680D02*
X26319480Y13314680D01*
X22931120Y12054840D02*
X22931120Y13314680D01*
X26319480Y12059920D02*
X22926040Y12059920D01*
D11*
X23164811Y12215703D02*
X23464811Y13115703D01*
X23764811Y12215703D01*
X24536240Y13115703D02*
X24021954Y13115703D01*
X24279097Y13115703D02*
X24279097Y12215703D01*
X24193382Y12344275D01*
X24107668Y12429989D01*
X24021954Y12472846D01*
X24921954Y13029989D02*
X24964811Y13072846D01*
X24921954Y13115703D01*
X24879097Y13072846D01*
X24921954Y13029989D01*
X24921954Y13115703D01*
X25521954Y12215703D02*
X25607668Y12215703D01*
X25693382Y12258560D01*
X25736240Y12301418D01*
X25779097Y12387132D01*
X25821954Y12558560D01*
X25821954Y12772846D01*
X25779097Y12944275D01*
X25736240Y13029989D01*
X25693382Y13072846D01*
X25607668Y13115703D01*
X25521954Y13115703D01*
X25436240Y13072846D01*
X25393382Y13029989D01*
X25350525Y12944275D01*
X25307668Y12772846D01*
X25307668Y12558560D01*
X25350525Y12387132D01*
X25393382Y12301418D01*
X25436240Y12258560D01*
X25521954Y12215703D01*
D12*
%TO.C,logo1*%
G36*
X12037010Y12707836D02*
G01*
X12089581Y12719752D01*
X12108857Y12746302D01*
X12110720Y12768580D01*
X12103140Y12805276D01*
X12070369Y12824393D01*
X11997358Y12831402D01*
X11936095Y12832080D01*
X11835179Y12829323D01*
X11782608Y12817407D01*
X11763332Y12790857D01*
X11761470Y12768580D01*
X11769049Y12731883D01*
X11801820Y12712766D01*
X11874831Y12705757D01*
X11936095Y12705080D01*
X12037010Y12707836D01*
G37*
X12037010Y12707836D02*
X12089581Y12719752D01*
X12108857Y12746302D01*
X12110720Y12768580D01*
X12103140Y12805276D01*
X12070369Y12824393D01*
X11997358Y12831402D01*
X11936095Y12832080D01*
X11835179Y12829323D01*
X11782608Y12817407D01*
X11763332Y12790857D01*
X11761470Y12768580D01*
X11769049Y12731883D01*
X11801820Y12712766D01*
X11874831Y12705757D01*
X11936095Y12705080D01*
X12037010Y12707836D01*
G36*
X9101708Y12715332D02*
G01*
X9123084Y12737395D01*
X9126220Y12766995D01*
X9119752Y12803123D01*
X9090670Y12822738D01*
X9024452Y12830743D01*
X8933391Y12832080D01*
X8826451Y12829713D01*
X8769758Y12819938D01*
X8750150Y12798743D01*
X8751138Y12776517D01*
X8771428Y12742887D01*
X8825552Y12723064D01*
X8927429Y12712352D01*
X8943966Y12711433D01*
X9046983Y12708196D01*
X9101708Y12715332D01*
G37*
X9101708Y12715332D02*
X9123084Y12737395D01*
X9126220Y12766995D01*
X9119752Y12803123D01*
X9090670Y12822738D01*
X9024452Y12830743D01*
X8933391Y12832080D01*
X8826451Y12829713D01*
X8769758Y12819938D01*
X8750150Y12798743D01*
X8751138Y12776517D01*
X8771428Y12742887D01*
X8825552Y12723064D01*
X8927429Y12712352D01*
X8943966Y12711433D01*
X9046983Y12708196D01*
X9101708Y12715332D01*
G36*
X16509028Y12421374D02*
G01*
X16595159Y12428660D01*
X16638959Y12442914D01*
X16650970Y12465370D01*
X16631327Y12494463D01*
X16566032Y12512380D01*
X16468716Y12520933D01*
X16359993Y12530847D01*
X16300737Y12549294D01*
X16277030Y12580969D01*
X16275888Y12586017D01*
X16278991Y12619183D01*
X16313930Y12635934D01*
X16394552Y12641383D01*
X16426391Y12641580D01*
X16528190Y12646884D01*
X16577911Y12664831D01*
X16587470Y12687545D01*
X16565865Y12718096D01*
X16495308Y12736452D01*
X16420782Y12743108D01*
X16323084Y12751408D01*
X16271943Y12767920D01*
X16250426Y12801928D01*
X16244048Y12840017D01*
X16241410Y12889700D01*
X16257995Y12915704D01*
X16308433Y12925693D01*
X16407355Y12927329D01*
X16410736Y12927330D01*
X16516759Y12931513D01*
X16571679Y12946215D01*
X16587469Y12974662D01*
X16587470Y12974955D01*
X16576334Y12998189D01*
X16535692Y13012661D01*
X16454693Y13020180D01*
X16322485Y13022554D01*
X16301720Y13022580D01*
X16154304Y13019748D01*
X16063053Y13010594D01*
X16020855Y12994131D01*
X16015929Y12982892D01*
X16020097Y12934555D01*
X16031214Y12841035D01*
X16047139Y12719996D01*
X16052490Y12681267D01*
X16089092Y12419330D01*
X16370031Y12419330D01*
X16509028Y12421374D01*
G37*
X16509028Y12421374D02*
X16595159Y12428660D01*
X16638959Y12442914D01*
X16650970Y12465370D01*
X16631327Y12494463D01*
X16566032Y12512380D01*
X16468716Y12520933D01*
X16359993Y12530847D01*
X16300737Y12549294D01*
X16277030Y12580969D01*
X16275888Y12586017D01*
X16278991Y12619183D01*
X16313930Y12635934D01*
X16394552Y12641383D01*
X16426391Y12641580D01*
X16528190Y12646884D01*
X16577911Y12664831D01*
X16587470Y12687545D01*
X16565865Y12718096D01*
X16495308Y12736452D01*
X16420782Y12743108D01*
X16323084Y12751408D01*
X16271943Y12767920D01*
X16250426Y12801928D01*
X16244048Y12840017D01*
X16241410Y12889700D01*
X16257995Y12915704D01*
X16308433Y12925693D01*
X16407355Y12927329D01*
X16410736Y12927330D01*
X16516759Y12931513D01*
X16571679Y12946215D01*
X16587469Y12974662D01*
X16587470Y12974955D01*
X16576334Y12998189D01*
X16535692Y13012661D01*
X16454693Y13020180D01*
X16322485Y13022554D01*
X16301720Y13022580D01*
X16154304Y13019748D01*
X16063053Y13010594D01*
X16020855Y12994131D01*
X16015929Y12982892D01*
X16020097Y12934555D01*
X16031214Y12841035D01*
X16047139Y12719996D01*
X16052490Y12681267D01*
X16089092Y12419330D01*
X16370031Y12419330D01*
X16509028Y12421374D01*
G36*
X15888970Y12498705D02*
G01*
X15880667Y12552383D01*
X15843305Y12574357D01*
X15777845Y12578080D01*
X15704394Y12570105D01*
X15667679Y12550496D01*
X15666720Y12546330D01*
X15638617Y12526165D01*
X15568690Y12515228D01*
X15544035Y12514579D01*
X15469275Y12517588D01*
X15430595Y12537816D01*
X15411700Y12592064D01*
X15401160Y12661886D01*
X15384831Y12790752D01*
X15382697Y12869242D01*
X15399978Y12909844D01*
X15441893Y12925044D01*
X15512124Y12927330D01*
X15643278Y12927330D01*
X15625245Y12816205D01*
X15607212Y12705079D01*
X15735919Y12705080D01*
X15816984Y12708434D01*
X15849557Y12724982D01*
X15848552Y12764445D01*
X15845481Y12776517D01*
X15830357Y12865332D01*
X15825903Y12935267D01*
X15825470Y13022580D01*
X15509843Y13022580D01*
X15374969Y13020327D01*
X15265686Y13014261D01*
X15196326Y13005415D01*
X15179474Y12998724D01*
X15176461Y12958391D01*
X15180988Y12870979D01*
X15192061Y12752334D01*
X15198412Y12697099D01*
X15232095Y12419330D01*
X15888970Y12419330D01*
X15888970Y12498705D01*
G37*
X15888970Y12498705D02*
X15880667Y12552383D01*
X15843305Y12574357D01*
X15777845Y12578080D01*
X15704394Y12570105D01*
X15667679Y12550496D01*
X15666720Y12546330D01*
X15638617Y12526165D01*
X15568690Y12515228D01*
X15544035Y12514579D01*
X15469275Y12517588D01*
X15430595Y12537816D01*
X15411700Y12592064D01*
X15401160Y12661886D01*
X15384831Y12790752D01*
X15382697Y12869242D01*
X15399978Y12909844D01*
X15441893Y12925044D01*
X15512124Y12927330D01*
X15643278Y12927330D01*
X15625245Y12816205D01*
X15607212Y12705079D01*
X15735919Y12705080D01*
X15816984Y12708434D01*
X15849557Y12724982D01*
X15848552Y12764445D01*
X15845481Y12776517D01*
X15830357Y12865332D01*
X15825903Y12935267D01*
X15825470Y13022580D01*
X15509843Y13022580D01*
X15374969Y13020327D01*
X15265686Y13014261D01*
X15196326Y13005415D01*
X15179474Y12998724D01*
X15176461Y12958391D01*
X15180988Y12870979D01*
X15192061Y12752334D01*
X15198412Y12697099D01*
X15232095Y12419330D01*
X15888970Y12419330D01*
X15888970Y12498705D01*
G36*
X14868312Y12420157D02*
G01*
X14968881Y12423763D01*
X15026423Y12431835D01*
X15051169Y12446058D01*
X15053353Y12468119D01*
X15051620Y12474892D01*
X15039388Y12535603D01*
X15024502Y12634894D01*
X15013751Y12720955D01*
X14997226Y12851685D01*
X14975280Y12937843D01*
X14935906Y12988721D01*
X14867097Y13013610D01*
X14756845Y13021802D01*
X14623996Y13022580D01*
X14313756Y13022580D01*
X14330997Y12895745D01*
X14529392Y12895745D01*
X14549845Y12920672D01*
X14612945Y12927141D01*
X14646323Y12927330D01*
X14730255Y12921942D01*
X14782639Y12908516D01*
X14788548Y12903517D01*
X14800123Y12861148D01*
X14814880Y12776413D01*
X14825830Y12697142D01*
X14848536Y12514579D01*
X14721411Y12514579D01*
X14639095Y12518745D01*
X14598812Y12542757D01*
X14579147Y12603886D01*
X14573792Y12633642D01*
X14554955Y12739433D01*
X14537015Y12834799D01*
X14535986Y12840017D01*
X14529392Y12895745D01*
X14330997Y12895745D01*
X14351521Y12744767D01*
X14366934Y12617855D01*
X14375937Y12515474D01*
X14377288Y12453418D01*
X14375254Y12443142D01*
X14399041Y12433662D01*
X14474245Y12425972D01*
X14588793Y12420920D01*
X14714485Y12419330D01*
X14868312Y12420157D01*
G37*
X14868312Y12420157D02*
X14968881Y12423763D01*
X15026423Y12431835D01*
X15051169Y12446058D01*
X15053353Y12468119D01*
X15051620Y12474892D01*
X15039388Y12535603D01*
X15024502Y12634894D01*
X15013751Y12720955D01*
X14997226Y12851685D01*
X14975280Y12937843D01*
X14935906Y12988721D01*
X14867097Y13013610D01*
X14756845Y13021802D01*
X14623996Y13022580D01*
X14313756Y13022580D01*
X14330997Y12895745D01*
X14529392Y12895745D01*
X14549845Y12920672D01*
X14612945Y12927141D01*
X14646323Y12927330D01*
X14730255Y12921942D01*
X14782639Y12908516D01*
X14788548Y12903517D01*
X14800123Y12861148D01*
X14814880Y12776413D01*
X14825830Y12697142D01*
X14848536Y12514579D01*
X14721411Y12514579D01*
X14639095Y12518745D01*
X14598812Y12542757D01*
X14579147Y12603886D01*
X14573792Y12633642D01*
X14554955Y12739433D01*
X14537015Y12834799D01*
X14535986Y12840017D01*
X14529392Y12895745D01*
X14330997Y12895745D01*
X14351521Y12744767D01*
X14366934Y12617855D01*
X14375937Y12515474D01*
X14377288Y12453418D01*
X14375254Y12443142D01*
X14399041Y12433662D01*
X14474245Y12425972D01*
X14588793Y12420920D01*
X14714485Y12419330D01*
X14868312Y12420157D01*
G36*
X14171688Y12424552D02*
G01*
X14196326Y12448411D01*
X14192375Y12490767D01*
X14180044Y12557205D01*
X14161969Y12663784D01*
X14141985Y12787871D01*
X14141276Y12792392D01*
X14121671Y12910484D01*
X14103852Y12979170D01*
X14080144Y13011835D01*
X14042868Y13021861D01*
X14009246Y13022580D01*
X13949766Y13019234D01*
X13925077Y12997538D01*
X13925173Y12940004D01*
X13932040Y12887642D01*
X13947675Y12771556D01*
X13965068Y12637140D01*
X13971486Y12586017D01*
X13985487Y12489312D01*
X14004476Y12439856D01*
X14040645Y12421809D01*
X14099790Y12419330D01*
X14171688Y12424552D01*
G37*
X14171688Y12424552D02*
X14196326Y12448411D01*
X14192375Y12490767D01*
X14180044Y12557205D01*
X14161969Y12663784D01*
X14141985Y12787871D01*
X14141276Y12792392D01*
X14121671Y12910484D01*
X14103852Y12979170D01*
X14080144Y13011835D01*
X14042868Y13021861D01*
X14009246Y13022580D01*
X13949766Y13019234D01*
X13925077Y12997538D01*
X13925173Y12940004D01*
X13932040Y12887642D01*
X13947675Y12771556D01*
X13965068Y12637140D01*
X13971486Y12586017D01*
X13985487Y12489312D01*
X14004476Y12439856D01*
X14040645Y12421809D01*
X14099790Y12419330D01*
X14171688Y12424552D01*
G36*
X13776731Y12586017D02*
G01*
X13753748Y12703236D01*
X13719022Y12769380D01*
X13663892Y12796801D01*
X13626782Y12799843D01*
X13579806Y12811004D01*
X13583566Y12846408D01*
X13639168Y12910827D01*
X13656307Y12927330D01*
X13740298Y13006705D01*
X13637221Y13016852D01*
X13565601Y13014580D01*
X13505067Y12983232D01*
X13433455Y12910987D01*
X13428872Y12905727D01*
X13323598Y12784455D01*
X13301000Y12903517D01*
X13280158Y12982027D01*
X13246116Y13015595D01*
X13182585Y13022580D01*
X13086767Y13022580D01*
X13108019Y12824142D01*
X13122568Y12699074D01*
X13127559Y12661514D01*
X13335251Y12661514D01*
X13360535Y12694553D01*
X13430880Y12704668D01*
X13465386Y12705080D01*
X13537700Y12699063D01*
X13566425Y12669246D01*
X13571220Y12609830D01*
X13564688Y12545081D01*
X13532090Y12519103D01*
X13463796Y12514580D01*
X13387104Y12522985D01*
X13351409Y12557325D01*
X13341341Y12593208D01*
X13335251Y12661514D01*
X13127559Y12661514D01*
X13137917Y12583578D01*
X13147404Y12522517D01*
X13165536Y12419330D01*
X13799428Y12419330D01*
X13776731Y12586017D01*
G37*
X13776731Y12586017D02*
X13753748Y12703236D01*
X13719022Y12769380D01*
X13663892Y12796801D01*
X13626782Y12799843D01*
X13579806Y12811004D01*
X13583566Y12846408D01*
X13639168Y12910827D01*
X13656307Y12927330D01*
X13740298Y13006705D01*
X13637221Y13016852D01*
X13565601Y13014580D01*
X13505067Y12983232D01*
X13433455Y12910987D01*
X13428872Y12905727D01*
X13323598Y12784455D01*
X13301000Y12903517D01*
X13280158Y12982027D01*
X13246116Y13015595D01*
X13182585Y13022580D01*
X13086767Y13022580D01*
X13108019Y12824142D01*
X13122568Y12699074D01*
X13127559Y12661514D01*
X13335251Y12661514D01*
X13360535Y12694553D01*
X13430880Y12704668D01*
X13465386Y12705080D01*
X13537700Y12699063D01*
X13566425Y12669246D01*
X13571220Y12609830D01*
X13564688Y12545081D01*
X13532090Y12519103D01*
X13463796Y12514580D01*
X13387104Y12522985D01*
X13351409Y12557325D01*
X13341341Y12593208D01*
X13335251Y12661514D01*
X13127559Y12661514D01*
X13137917Y12583578D01*
X13147404Y12522517D01*
X13165536Y12419330D01*
X13799428Y12419330D01*
X13776731Y12586017D01*
G36*
X12954344Y12538392D02*
G01*
X12937623Y12647152D01*
X12922618Y12773530D01*
X12919153Y12810145D01*
X12907732Y12906148D01*
X12893871Y12975688D01*
X12887434Y12992708D01*
X12849783Y13005281D01*
X12763088Y13015244D01*
X12641791Y13021319D01*
X12549288Y13022580D01*
X12229604Y13022580D01*
X12248484Y12903517D01*
X12249631Y12895595D01*
X12464310Y12895595D01*
X12488111Y12920597D01*
X12553739Y12927148D01*
X12584861Y12927330D01*
X12667144Y12923780D01*
X12704061Y12904061D01*
X12713695Y12854562D01*
X12713970Y12830163D01*
X12709330Y12767049D01*
X12682972Y12741945D01*
X12616238Y12741167D01*
X12594907Y12742850D01*
X12514776Y12755908D01*
X12478010Y12787186D01*
X12465798Y12840017D01*
X12464310Y12895595D01*
X12249631Y12895595D01*
X12263182Y12802049D01*
X12279906Y12674169D01*
X12288663Y12601892D01*
X12291441Y12578080D01*
X12491720Y12578080D01*
X12502370Y12619624D01*
X12545415Y12637984D01*
X12618720Y12641580D01*
X12701808Y12636254D01*
X12738529Y12614732D01*
X12745720Y12578080D01*
X12735069Y12536535D01*
X12692024Y12518175D01*
X12618720Y12514580D01*
X12535631Y12519905D01*
X12498910Y12541427D01*
X12491720Y12578080D01*
X12291441Y12578080D01*
X12309962Y12419330D01*
X12643120Y12419329D01*
X12976278Y12419329D01*
X12954344Y12538392D01*
G37*
X12954344Y12538392D02*
X12937623Y12647152D01*
X12922618Y12773530D01*
X12919153Y12810145D01*
X12907732Y12906148D01*
X12893871Y12975688D01*
X12887434Y12992708D01*
X12849783Y13005281D01*
X12763088Y13015244D01*
X12641791Y13021319D01*
X12549288Y13022580D01*
X12229604Y13022580D01*
X12248484Y12903517D01*
X12249631Y12895595D01*
X12464310Y12895595D01*
X12488111Y12920597D01*
X12553739Y12927148D01*
X12584861Y12927330D01*
X12667144Y12923780D01*
X12704061Y12904061D01*
X12713695Y12854562D01*
X12713970Y12830163D01*
X12709330Y12767049D01*
X12682972Y12741945D01*
X12616238Y12741167D01*
X12594907Y12742850D01*
X12514776Y12755908D01*
X12478010Y12787186D01*
X12465798Y12840017D01*
X12464310Y12895595D01*
X12249631Y12895595D01*
X12263182Y12802049D01*
X12279906Y12674169D01*
X12288663Y12601892D01*
X12291441Y12578080D01*
X12491720Y12578080D01*
X12502370Y12619624D01*
X12545415Y12637984D01*
X12618720Y12641580D01*
X12701808Y12636254D01*
X12738529Y12614732D01*
X12745720Y12578080D01*
X12735069Y12536535D01*
X12692024Y12518175D01*
X12618720Y12514580D01*
X12535631Y12519905D01*
X12498910Y12541427D01*
X12491720Y12578080D01*
X12291441Y12578080D01*
X12309962Y12419330D01*
X12643120Y12419329D01*
X12976278Y12419329D01*
X12954344Y12538392D01*
G36*
X11618208Y12538392D02*
G01*
X11598749Y12656242D01*
X11583777Y12777497D01*
X11583365Y12781870D01*
X11572474Y12887891D01*
X11555409Y12957085D01*
X11520304Y12997301D01*
X11455292Y13016392D01*
X11348509Y13022208D01*
X11219580Y13022580D01*
X11064148Y13020141D01*
X10964813Y13012217D01*
X10914336Y12997897D01*
X10904179Y12982892D01*
X10908347Y12934555D01*
X10919464Y12841035D01*
X10920642Y12832080D01*
X11126470Y12832080D01*
X11131485Y12893155D01*
X11158662Y12920305D01*
X11226199Y12927179D01*
X11253470Y12927330D01*
X11334903Y12923568D01*
X11371103Y12903185D01*
X11380269Y12852533D01*
X11380470Y12832080D01*
X11375454Y12771004D01*
X11348277Y12743854D01*
X11280740Y12736980D01*
X11253470Y12736830D01*
X11172036Y12740591D01*
X11135836Y12760974D01*
X11126670Y12811626D01*
X11126470Y12832080D01*
X10920642Y12832080D01*
X10935389Y12719996D01*
X10940740Y12681267D01*
X10955158Y12578080D01*
X11158220Y12578080D01*
X11168870Y12619624D01*
X11211915Y12637984D01*
X11285220Y12641580D01*
X11368308Y12636254D01*
X11405029Y12614732D01*
X11412220Y12578080D01*
X11401569Y12536535D01*
X11358524Y12518175D01*
X11285220Y12514580D01*
X11202131Y12519905D01*
X11165410Y12541427D01*
X11158220Y12578080D01*
X10955158Y12578080D01*
X10977342Y12419330D01*
X11641536Y12419330D01*
X11618208Y12538392D01*
G37*
X11618208Y12538392D02*
X11598749Y12656242D01*
X11583777Y12777497D01*
X11583365Y12781870D01*
X11572474Y12887891D01*
X11555409Y12957085D01*
X11520304Y12997301D01*
X11455292Y13016392D01*
X11348509Y13022208D01*
X11219580Y13022580D01*
X11064148Y13020141D01*
X10964813Y13012217D01*
X10914336Y12997897D01*
X10904179Y12982892D01*
X10908347Y12934555D01*
X10919464Y12841035D01*
X10920642Y12832080D01*
X11126470Y12832080D01*
X11131485Y12893155D01*
X11158662Y12920305D01*
X11226199Y12927179D01*
X11253470Y12927330D01*
X11334903Y12923568D01*
X11371103Y12903185D01*
X11380269Y12852533D01*
X11380470Y12832080D01*
X11375454Y12771004D01*
X11348277Y12743854D01*
X11280740Y12736980D01*
X11253470Y12736830D01*
X11172036Y12740591D01*
X11135836Y12760974D01*
X11126670Y12811626D01*
X11126470Y12832080D01*
X10920642Y12832080D01*
X10935389Y12719996D01*
X10940740Y12681267D01*
X10955158Y12578080D01*
X11158220Y12578080D01*
X11168870Y12619624D01*
X11211915Y12637984D01*
X11285220Y12641580D01*
X11368308Y12636254D01*
X11405029Y12614732D01*
X11412220Y12578080D01*
X11401569Y12536535D01*
X11358524Y12518175D01*
X11285220Y12514580D01*
X11202131Y12519905D01*
X11165410Y12541427D01*
X11158220Y12578080D01*
X10955158Y12578080D01*
X10977342Y12419330D01*
X11641536Y12419330D01*
X11618208Y12538392D01*
G36*
X10616365Y12419887D02*
G01*
X10704121Y12423663D01*
X10752221Y12433809D01*
X10772591Y12453478D01*
X10777152Y12485822D01*
X10777220Y12498705D01*
X10769104Y12552059D01*
X10732363Y12574143D01*
X10664221Y12578080D01*
X10591978Y12570559D01*
X10569000Y12550663D01*
X10570845Y12546329D01*
X10557431Y12524725D01*
X10492748Y12514814D01*
X10477468Y12514579D01*
X10403268Y12521791D01*
X10365632Y12539559D01*
X10364470Y12543733D01*
X10353997Y12596941D01*
X10345198Y12623108D01*
X10343635Y12649996D01*
X10372610Y12665306D01*
X10443843Y12672058D01*
X10540013Y12673330D01*
X10754101Y12673329D01*
X10734157Y12818838D01*
X10718504Y12912319D01*
X10702186Y12979077D01*
X10696217Y12993463D01*
X10658568Y13006144D01*
X10572478Y13016031D01*
X10452992Y13021731D01*
X10381443Y13022580D01*
X10243214Y13021758D01*
X10157273Y13017598D01*
X10112413Y13007562D01*
X10097428Y12989109D01*
X10101109Y12959698D01*
X10101270Y12959080D01*
X10118536Y12924087D01*
X10157360Y12904816D01*
X10233062Y12896832D01*
X10320548Y12895580D01*
X10431017Y12893529D01*
X10492183Y12884423D01*
X10518189Y12863831D01*
X10523220Y12832080D01*
X10516697Y12797517D01*
X10487717Y12778353D01*
X10422158Y12770181D01*
X10319817Y12768580D01*
X10209346Y12766438D01*
X10149403Y12757530D01*
X10127089Y12738126D01*
X10127567Y12713017D01*
X10139955Y12645072D01*
X10155647Y12551648D01*
X10157783Y12538392D01*
X10176847Y12419330D01*
X10477033Y12419330D01*
X10616365Y12419887D01*
G37*
X10616365Y12419887D02*
X10704121Y12423663D01*
X10752221Y12433809D01*
X10772591Y12453478D01*
X10777152Y12485822D01*
X10777220Y12498705D01*
X10769104Y12552059D01*
X10732363Y12574143D01*
X10664221Y12578080D01*
X10591978Y12570559D01*
X10569000Y12550663D01*
X10570845Y12546329D01*
X10557431Y12524725D01*
X10492748Y12514814D01*
X10477468Y12514579D01*
X10403268Y12521791D01*
X10365632Y12539559D01*
X10364470Y12543733D01*
X10353997Y12596941D01*
X10345198Y12623108D01*
X10343635Y12649996D01*
X10372610Y12665306D01*
X10443843Y12672058D01*
X10540013Y12673330D01*
X10754101Y12673329D01*
X10734157Y12818838D01*
X10718504Y12912319D01*
X10702186Y12979077D01*
X10696217Y12993463D01*
X10658568Y13006144D01*
X10572478Y13016031D01*
X10452992Y13021731D01*
X10381443Y13022580D01*
X10243214Y13021758D01*
X10157273Y13017598D01*
X10112413Y13007562D01*
X10097428Y12989109D01*
X10101109Y12959698D01*
X10101270Y12959080D01*
X10118536Y12924087D01*
X10157360Y12904816D01*
X10233062Y12896832D01*
X10320548Y12895580D01*
X10431017Y12893529D01*
X10492183Y12884423D01*
X10518189Y12863831D01*
X10523220Y12832080D01*
X10516697Y12797517D01*
X10487717Y12778353D01*
X10422158Y12770181D01*
X10319817Y12768580D01*
X10209346Y12766438D01*
X10149403Y12757530D01*
X10127089Y12738126D01*
X10127567Y12713017D01*
X10139955Y12645072D01*
X10155647Y12551648D01*
X10157783Y12538392D01*
X10176847Y12419330D01*
X10477033Y12419330D01*
X10616365Y12419887D01*
G36*
X9492649Y12601892D02*
G01*
X9477547Y12715884D01*
X9462149Y12813545D01*
X9453799Y12855892D01*
X9449297Y12901630D01*
X9475225Y12922128D01*
X9546817Y12927271D01*
X9563881Y12927330D01*
X9634241Y12924548D01*
X9679998Y12908262D01*
X9708479Y12866556D01*
X9727007Y12787516D01*
X9742909Y12659226D01*
X9745924Y12631237D01*
X9768617Y12419330D01*
X9876418Y12419330D01*
X9946085Y12422727D01*
X9972795Y12445280D01*
X9970393Y12505529D01*
X9965326Y12538392D01*
X9950211Y12641513D01*
X9933139Y12769098D01*
X9925263Y12832080D01*
X9904095Y13006705D01*
X9573990Y13015804D01*
X9243885Y13024904D01*
X9265135Y12796262D01*
X9281356Y12636388D01*
X9297600Y12529366D01*
X9318157Y12464692D01*
X9347316Y12431859D01*
X9389368Y12420363D01*
X9419070Y12419330D01*
X9514536Y12419330D01*
X9492649Y12601892D01*
G37*
X9492649Y12601892D02*
X9477547Y12715884D01*
X9462149Y12813545D01*
X9453799Y12855892D01*
X9449297Y12901630D01*
X9475225Y12922128D01*
X9546817Y12927271D01*
X9563881Y12927330D01*
X9634241Y12924548D01*
X9679998Y12908262D01*
X9708479Y12866556D01*
X9727007Y12787516D01*
X9742909Y12659226D01*
X9745924Y12631237D01*
X9768617Y12419330D01*
X9876418Y12419330D01*
X9946085Y12422727D01*
X9972795Y12445280D01*
X9970393Y12505529D01*
X9965326Y12538392D01*
X9950211Y12641513D01*
X9933139Y12769098D01*
X9925263Y12832080D01*
X9904095Y13006705D01*
X9573990Y13015804D01*
X9243885Y13024904D01*
X9265135Y12796262D01*
X9281356Y12636388D01*
X9297600Y12529366D01*
X9318157Y12464692D01*
X9347316Y12431859D01*
X9389368Y12420363D01*
X9419070Y12419330D01*
X9514536Y12419330D01*
X9492649Y12601892D01*
G36*
X8634566Y12554267D02*
G01*
X8614374Y12676055D01*
X8591335Y12748786D01*
X8551399Y12785909D01*
X8480517Y12800872D01*
X8370672Y12806855D01*
X8257537Y12813150D01*
X8192595Y12824161D01*
X8160579Y12846873D01*
X8146224Y12888271D01*
X8142037Y12911455D01*
X8118405Y12981518D01*
X8065240Y13010883D01*
X8027861Y13016274D01*
X7929905Y13025843D01*
X7955326Y12841649D01*
X7971137Y12715409D01*
X7976696Y12661968D01*
X8173720Y12661968D01*
X8191954Y12693101D01*
X8254620Y12701239D01*
X8292782Y12699059D01*
X8372913Y12686001D01*
X8409679Y12654723D01*
X8421891Y12601892D01*
X8422487Y12543160D01*
X8394014Y12519126D01*
X8322100Y12514580D01*
X8229226Y12531884D01*
X8182923Y12589339D01*
X8173720Y12661968D01*
X7976696Y12661968D01*
X7983756Y12594119D01*
X7988190Y12538392D01*
X7995634Y12419330D01*
X8655551Y12419330D01*
X8634566Y12554267D01*
G37*
X8634566Y12554267D02*
X8614374Y12676055D01*
X8591335Y12748786D01*
X8551399Y12785909D01*
X8480517Y12800872D01*
X8370672Y12806855D01*
X8257537Y12813150D01*
X8192595Y12824161D01*
X8160579Y12846873D01*
X8146224Y12888271D01*
X8142037Y12911455D01*
X8118405Y12981518D01*
X8065240Y13010883D01*
X8027861Y13016274D01*
X7929905Y13025843D01*
X7955326Y12841649D01*
X7971137Y12715409D01*
X7976696Y12661968D01*
X8173720Y12661968D01*
X8191954Y12693101D01*
X8254620Y12701239D01*
X8292782Y12699059D01*
X8372913Y12686001D01*
X8409679Y12654723D01*
X8421891Y12601892D01*
X8422487Y12543160D01*
X8394014Y12519126D01*
X8322100Y12514580D01*
X8229226Y12531884D01*
X8182923Y12589339D01*
X8173720Y12661968D01*
X7976696Y12661968D01*
X7983756Y12594119D01*
X7988190Y12538392D01*
X7995634Y12419330D01*
X8655551Y12419330D01*
X8634566Y12554267D01*
G36*
X7666657Y12419979D02*
G01*
X7754354Y12423799D01*
X7801480Y12433595D01*
X7819500Y12452175D01*
X7819879Y12482344D01*
X7818740Y12490767D01*
X7794415Y12544639D01*
X7730299Y12569090D01*
X7705407Y12572154D01*
X7631454Y12569569D01*
X7602235Y12547035D01*
X7602220Y12546330D01*
X7574197Y12523393D01*
X7501070Y12520314D01*
X7499032Y12520505D01*
X7421909Y12539485D01*
X7389109Y12584632D01*
X7385699Y12601892D01*
X7384374Y12640030D01*
X7403032Y12661438D01*
X7455122Y12670921D01*
X7554094Y12673287D01*
X7585575Y12673330D01*
X7795597Y12673330D01*
X7775511Y12792392D01*
X7757484Y12897577D01*
X7737632Y12964665D01*
X7702980Y13002188D01*
X7640553Y13018676D01*
X7537378Y13022662D01*
X7425455Y13022580D01*
X7285856Y13021608D01*
X7197929Y13017022D01*
X7149853Y13006316D01*
X7129811Y12986984D01*
X7125970Y12959080D01*
X7131966Y12925708D01*
X7159006Y12906590D01*
X7220667Y12897846D01*
X7330528Y12895597D01*
X7348220Y12895580D01*
X7465019Y12893866D01*
X7531931Y12886141D01*
X7562535Y12868523D01*
X7570408Y12837134D01*
X7570470Y12832080D01*
X7564095Y12797841D01*
X7535655Y12778685D01*
X7471176Y12770352D01*
X7362149Y12768580D01*
X7153829Y12768579D01*
X7175694Y12617767D01*
X7191253Y12524164D01*
X7205847Y12458292D01*
X7211264Y12443142D01*
X7246913Y12432868D01*
X7331426Y12424821D01*
X7450176Y12420105D01*
X7526927Y12419330D01*
X7666657Y12419979D01*
G37*
X7666657Y12419979D02*
X7754354Y12423799D01*
X7801480Y12433595D01*
X7819500Y12452175D01*
X7819879Y12482344D01*
X7818740Y12490767D01*
X7794415Y12544639D01*
X7730299Y12569090D01*
X7705407Y12572154D01*
X7631454Y12569569D01*
X7602235Y12547035D01*
X7602220Y12546330D01*
X7574197Y12523393D01*
X7501070Y12520314D01*
X7499032Y12520505D01*
X7421909Y12539485D01*
X7389109Y12584632D01*
X7385699Y12601892D01*
X7384374Y12640030D01*
X7403032Y12661438D01*
X7455122Y12670921D01*
X7554094Y12673287D01*
X7585575Y12673330D01*
X7795597Y12673330D01*
X7775511Y12792392D01*
X7757484Y12897577D01*
X7737632Y12964665D01*
X7702980Y13002188D01*
X7640553Y13018676D01*
X7537378Y13022662D01*
X7425455Y13022580D01*
X7285856Y13021608D01*
X7197929Y13017022D01*
X7149853Y13006316D01*
X7129811Y12986984D01*
X7125970Y12959080D01*
X7131966Y12925708D01*
X7159006Y12906590D01*
X7220667Y12897846D01*
X7330528Y12895597D01*
X7348220Y12895580D01*
X7465019Y12893866D01*
X7531931Y12886141D01*
X7562535Y12868523D01*
X7570408Y12837134D01*
X7570470Y12832080D01*
X7564095Y12797841D01*
X7535655Y12778685D01*
X7471176Y12770352D01*
X7362149Y12768580D01*
X7153829Y12768579D01*
X7175694Y12617767D01*
X7191253Y12524164D01*
X7205847Y12458292D01*
X7211264Y12443142D01*
X7246913Y12432868D01*
X7331426Y12424821D01*
X7450176Y12420105D01*
X7526927Y12419330D01*
X7666657Y12419979D01*
G36*
X6893550Y12421681D02*
G01*
X6980236Y12429510D01*
X7019496Y12443982D01*
X7022919Y12459017D01*
X6984188Y12484546D01*
X6895446Y12502649D01*
X6829774Y12508226D01*
X6726246Y12516747D01*
X6671661Y12532104D01*
X6651468Y12560072D01*
X6649720Y12579664D01*
X6658567Y12616879D01*
X6695420Y12635434D01*
X6775746Y12641361D01*
X6808470Y12641580D01*
X6908301Y12646678D01*
X6957061Y12664330D01*
X6967220Y12689205D01*
X6951542Y12717925D01*
X6896531Y12732712D01*
X6792595Y12736830D01*
X6692764Y12738429D01*
X6640803Y12748911D01*
X6621082Y12776800D01*
X6617970Y12830623D01*
X6617970Y12832080D01*
X6620902Y12886532D01*
X6640118Y12914875D01*
X6691249Y12925632D01*
X6789924Y12927329D01*
X6792595Y12927330D01*
X6897904Y12931605D01*
X6952121Y12946608D01*
X6967220Y12974955D01*
X6956084Y12998189D01*
X6915442Y13012661D01*
X6834443Y13020180D01*
X6702235Y13022554D01*
X6681470Y13022580D01*
X6545599Y13021474D01*
X6461159Y13016408D01*
X6416094Y13004757D01*
X6398351Y12983898D01*
X6395720Y12960376D01*
X6400258Y12899568D01*
X6412226Y12796967D01*
X6429152Y12673503D01*
X6431329Y12658751D01*
X6466939Y12419330D01*
X6751475Y12419330D01*
X6893550Y12421681D01*
G37*
X6893550Y12421681D02*
X6980236Y12429510D01*
X7019496Y12443982D01*
X7022919Y12459017D01*
X6984188Y12484546D01*
X6895446Y12502649D01*
X6829774Y12508226D01*
X6726246Y12516747D01*
X6671661Y12532104D01*
X6651468Y12560072D01*
X6649720Y12579664D01*
X6658567Y12616879D01*
X6695420Y12635434D01*
X6775746Y12641361D01*
X6808470Y12641580D01*
X6908301Y12646678D01*
X6957061Y12664330D01*
X6967220Y12689205D01*
X6951542Y12717925D01*
X6896531Y12732712D01*
X6792595Y12736830D01*
X6692764Y12738429D01*
X6640803Y12748911D01*
X6621082Y12776800D01*
X6617970Y12830623D01*
X6617970Y12832080D01*
X6620902Y12886532D01*
X6640118Y12914875D01*
X6691249Y12925632D01*
X6789924Y12927329D01*
X6792595Y12927330D01*
X6897904Y12931605D01*
X6952121Y12946608D01*
X6967220Y12974955D01*
X6956084Y12998189D01*
X6915442Y13012661D01*
X6834443Y13020180D01*
X6702235Y13022554D01*
X6681470Y13022580D01*
X6545599Y13021474D01*
X6461159Y13016408D01*
X6416094Y13004757D01*
X6398351Y12983898D01*
X6395720Y12960376D01*
X6400258Y12899568D01*
X6412226Y12796967D01*
X6429152Y12673503D01*
X6431329Y12658751D01*
X6466939Y12419330D01*
X6751475Y12419330D01*
X6893550Y12421681D01*
D10*
%TO.C,D5*%
X25084000Y8441200D02*
X23184000Y8441200D01*
X23684000Y10761200D02*
X25084000Y10761200D01*
%TO.C,D4*%
X25084000Y2904000D02*
X23184000Y2904000D01*
X23684000Y5224000D02*
X25084000Y5224000D01*
%TO.C,TP3*%
X19673800Y3581400D02*
G75*
G03*
X19673800Y3581400I-700000J0D01*
G01*
%TO.C,U2*%
X8548800Y10296800D02*
X10348800Y10296800D01*
X10348800Y7076800D02*
X7898800Y7076800D01*
%TO.C,U1*%
X15956200Y7194600D02*
X15956200Y5934600D01*
X15956200Y374600D02*
X15956200Y1634600D01*
X12196200Y7194600D02*
X15956200Y7194600D01*
X9946200Y374600D02*
X15956200Y374600D01*
%TO.C,C2*%
X8847000Y1815021D02*
X8847000Y2140579D01*
X7827000Y1815021D02*
X7827000Y2140579D01*
%TO.C,C1*%
X8847000Y5117021D02*
X8847000Y5442579D01*
X7827000Y5117021D02*
X7827000Y5442579D01*
%TD*%
M02*
