M48
; DRILL file {KiCad (5.1.6)-1} date 01/16/22 18:26:27
; FORMAT={-:-/ absolute / metric / decimal}
; #@! TF.CreationDate,2022-01-16T18:26:27+08:00
; #@! TF.GenerationSoftware,Kicad,Pcbnew,(5.1.6)-1
; #@! TF.FileFunction,Plated,1,2,PTH
FMAT,2
METRIC
T1C0.200
T2C0.600
T3C0.900
%
G90
G05
T1
X6.3Y2.4
X6.35Y10.414
X6.452Y9.398
X6.452Y4.572
X6.655Y7.772
X6.706Y6.243
X6.711Y6.767
X6.85Y2.9
X6.85Y1.85
X7.447Y3.637
X7.468Y4.267
X7.645Y1.448
X7.722Y8.839
X7.75Y13.5
X7.823Y2.692
X9.0Y13.5
X10.25Y13.5
X11.4Y10.6
X11.5Y13.5
X11.8Y10.1
X12.35Y10.85
X12.4Y9.9
X12.7Y3.0
X12.725Y1.087
X12.75Y13.5
X13.005Y9.728
X13.2Y3.0
X13.5Y7.0
X13.5Y6.0
X13.614Y10.871
X13.7Y3.0
X14.0Y13.5
X14.0Y6.5
X14.2Y3.0
X14.5Y7.0
X14.5Y6.0
X14.7Y3.0
X15.062Y1.788
X15.138Y9.042
X15.25Y13.5
X15.342Y2.499
X15.56Y2.002
X16.65Y13.5
X16.65Y12.7
X16.65Y11.455
X16.65Y10.82
X16.65Y10.15
X16.764Y7.237
X16.764Y5.893
X16.764Y2.692
X17.6Y10.7
X17.678Y8.89
X17.9Y7.9
X17.9Y7.3
X18.049Y6.025
X18.6Y10.7
X18.6Y10.2
X19.2Y5.8
X19.202Y5.029
X19.279Y3.175
X19.6Y10.7
X19.6Y10.2
X20.1Y7.45
X20.117Y7.925
X20.32Y1.016
X20.375Y3.8
X20.6Y10.7
X20.6Y10.2
X20.639Y2.92
X21.096Y2.625
X21.6Y10.7
X21.6Y10.2
X21.96Y6.09
X22.6Y10.7
X22.6Y10.2
X23.565Y2.044
X23.6Y11.0
X23.675Y2.874
X24.099Y9.55
X24.2Y4.113
X24.325Y13.4
X24.325Y12.8
X24.325Y12.0
X24.325Y11.4
X24.435Y10.211
X25.0Y13.4
X25.0Y12.8
X25.0Y12.2
X25.0Y11.6
X25.019Y10.846
X25.41Y1.336
X25.651Y9.601
X25.925Y4.05
X25.95Y7.45
X26.42Y3.35
T2
G00X0.511Y12.595
M15
G01X1.711Y12.595
M16
G05
G00X0.511Y1.405
M15
G01X1.711Y1.405
M16
G05
G00X4.781Y12.595
M15
G01X5.581Y12.595
M16
G05
G00X4.781Y1.405
M15
G01X5.581Y1.405
M16
G05
T3
G00X3.23Y12.71
M15
G01X1.63Y12.71
M16
G05
G00X3.23Y1.31
M15
G01X1.63Y1.31
M16
G05
T0
M30
