%TF.GenerationSoftware,KiCad,Pcbnew,(5.1.6)-1*%
%TF.CreationDate,2022-01-17T15:46:57+08:00*%
%TF.ProjectId,esp32s2-uart,65737033-3273-4322-9d75-6172742e6b69,rev?*%
%TF.SameCoordinates,Original*%
%TF.FileFunction,Paste,Top*%
%TF.FilePolarity,Positive*%
%FSLAX46Y46*%
G04 Gerber Fmt 4.6, Leading zero omitted, Abs format (unit mm)*
G04 Created by KiCad (PCBNEW (5.1.6)-1) date 2022-01-17 15:46:57*
%MOMM*%
%LPD*%
G01*
G04 APERTURE LIST*
%ADD10R,1.550000X0.800000*%
%ADD11R,2.500000X1.100000*%
%ADD12R,1.000000X1.300000*%
G04 APERTURE END LIST*
D10*
%TO.C,SW1*%
X19523800Y2982800D03*
X24773800Y2982800D03*
X24773800Y1282800D03*
X19523800Y1282800D03*
%TD*%
D11*
%TO.C,J1*%
X5179600Y6010400D03*
X5179600Y8010400D03*
X5179600Y3510400D03*
X5179600Y10510400D03*
%TD*%
%TO.C,R9*%
G36*
G01*
X22420000Y8361900D02*
X22420000Y8706900D01*
G75*
G02*
X22567500Y8854400I147500J0D01*
G01*
X22862500Y8854400D01*
G75*
G02*
X23010000Y8706900I0J-147500D01*
G01*
X23010000Y8361900D01*
G75*
G02*
X22862500Y8214400I-147500J0D01*
G01*
X22567500Y8214400D01*
G75*
G02*
X22420000Y8361900I0J147500D01*
G01*
G37*
G36*
G01*
X23390000Y8361900D02*
X23390000Y8706900D01*
G75*
G02*
X23537500Y8854400I147500J0D01*
G01*
X23832500Y8854400D01*
G75*
G02*
X23980000Y8706900I0J-147500D01*
G01*
X23980000Y8361900D01*
G75*
G02*
X23832500Y8214400I-147500J0D01*
G01*
X23537500Y8214400D01*
G75*
G02*
X23390000Y8361900I0J147500D01*
G01*
G37*
%TD*%
%TO.C,R8*%
G36*
G01*
X22420000Y5202500D02*
X22420000Y5547500D01*
G75*
G02*
X22567500Y5695000I147500J0D01*
G01*
X22862500Y5695000D01*
G75*
G02*
X23010000Y5547500I0J-147500D01*
G01*
X23010000Y5202500D01*
G75*
G02*
X22862500Y5055000I-147500J0D01*
G01*
X22567500Y5055000D01*
G75*
G02*
X22420000Y5202500I0J147500D01*
G01*
G37*
G36*
G01*
X23390000Y5202500D02*
X23390000Y5547500D01*
G75*
G02*
X23537500Y5695000I147500J0D01*
G01*
X23832500Y5695000D01*
G75*
G02*
X23980000Y5547500I0J-147500D01*
G01*
X23980000Y5202500D01*
G75*
G02*
X23832500Y5055000I-147500J0D01*
G01*
X23537500Y5055000D01*
G75*
G02*
X23390000Y5202500I0J147500D01*
G01*
G37*
%TD*%
%TO.C,R4*%
G36*
G01*
X9316500Y9583200D02*
X8971500Y9583200D01*
G75*
G02*
X8824000Y9730700I0J147500D01*
G01*
X8824000Y10025700D01*
G75*
G02*
X8971500Y10173200I147500J0D01*
G01*
X9316500Y10173200D01*
G75*
G02*
X9464000Y10025700I0J-147500D01*
G01*
X9464000Y9730700D01*
G75*
G02*
X9316500Y9583200I-147500J0D01*
G01*
G37*
G36*
G01*
X9316500Y10553200D02*
X8971500Y10553200D01*
G75*
G02*
X8824000Y10700700I0J147500D01*
G01*
X8824000Y10995700D01*
G75*
G02*
X8971500Y11143200I147500J0D01*
G01*
X9316500Y11143200D01*
G75*
G02*
X9464000Y10995700I0J-147500D01*
G01*
X9464000Y10700700D01*
G75*
G02*
X9316500Y10553200I-147500J0D01*
G01*
G37*
%TD*%
%TO.C,R3*%
G36*
G01*
X10586500Y9583200D02*
X10241500Y9583200D01*
G75*
G02*
X10094000Y9730700I0J147500D01*
G01*
X10094000Y10025700D01*
G75*
G02*
X10241500Y10173200I147500J0D01*
G01*
X10586500Y10173200D01*
G75*
G02*
X10734000Y10025700I0J-147500D01*
G01*
X10734000Y9730700D01*
G75*
G02*
X10586500Y9583200I-147500J0D01*
G01*
G37*
G36*
G01*
X10586500Y10553200D02*
X10241500Y10553200D01*
G75*
G02*
X10094000Y10700700I0J147500D01*
G01*
X10094000Y10995700D01*
G75*
G02*
X10241500Y11143200I147500J0D01*
G01*
X10586500Y11143200D01*
G75*
G02*
X10734000Y10995700I0J-147500D01*
G01*
X10734000Y10700700D01*
G75*
G02*
X10586500Y10553200I-147500J0D01*
G01*
G37*
%TD*%
%TO.C,J3*%
G36*
G01*
X26356000Y11739600D02*
X26356000Y12339600D01*
G75*
G02*
X26656000Y12639600I300000J0D01*
G01*
X29456000Y12639600D01*
G75*
G02*
X29756000Y12339600I0J-300000D01*
G01*
X29756000Y11739600D01*
G75*
G02*
X29456000Y11439600I-300000J0D01*
G01*
X26656000Y11439600D01*
G75*
G02*
X26356000Y11739600I0J300000D01*
G01*
G37*
G36*
G01*
X26356000Y9199600D02*
X26356000Y9799600D01*
G75*
G02*
X26656000Y10099600I300000J0D01*
G01*
X29456000Y10099600D01*
G75*
G02*
X29756000Y9799600I0J-300000D01*
G01*
X29756000Y9199600D01*
G75*
G02*
X29456000Y8899600I-300000J0D01*
G01*
X26656000Y8899600D01*
G75*
G02*
X26356000Y9199600I0J300000D01*
G01*
G37*
G36*
G01*
X26356000Y6659600D02*
X26356000Y7259600D01*
G75*
G02*
X26656000Y7559600I300000J0D01*
G01*
X29456000Y7559600D01*
G75*
G02*
X29756000Y7259600I0J-300000D01*
G01*
X29756000Y6659600D01*
G75*
G02*
X29456000Y6359600I-300000J0D01*
G01*
X26656000Y6359600D01*
G75*
G02*
X26356000Y6659600I0J300000D01*
G01*
G37*
G36*
G01*
X26356000Y4119600D02*
X26356000Y4719600D01*
G75*
G02*
X26656000Y5019600I300000J0D01*
G01*
X29456000Y5019600D01*
G75*
G02*
X29756000Y4719600I0J-300000D01*
G01*
X29756000Y4119600D01*
G75*
G02*
X29456000Y3819600I-300000J0D01*
G01*
X26656000Y3819600D01*
G75*
G02*
X26356000Y4119600I0J300000D01*
G01*
G37*
G36*
G01*
X26356000Y1579600D02*
X26356000Y2179600D01*
G75*
G02*
X26656000Y2479600I300000J0D01*
G01*
X29456000Y2479600D01*
G75*
G02*
X29756000Y2179600I0J-300000D01*
G01*
X29756000Y1579600D01*
G75*
G02*
X29456000Y1279600I-300000J0D01*
G01*
X26656000Y1279600D01*
G75*
G02*
X26356000Y1579600I0J300000D01*
G01*
G37*
%TD*%
%TO.C,D2*%
G36*
G01*
X8735350Y13765400D02*
X9247850Y13765400D01*
G75*
G02*
X9466600Y13546650I0J-218750D01*
G01*
X9466600Y13109150D01*
G75*
G02*
X9247850Y12890400I-218750J0D01*
G01*
X8735350Y12890400D01*
G75*
G02*
X8516600Y13109150I0J218750D01*
G01*
X8516600Y13546650D01*
G75*
G02*
X8735350Y13765400I218750J0D01*
G01*
G37*
G36*
G01*
X8735350Y12190400D02*
X9247850Y12190400D01*
G75*
G02*
X9466600Y11971650I0J-218750D01*
G01*
X9466600Y11534150D01*
G75*
G02*
X9247850Y11315400I-218750J0D01*
G01*
X8735350Y11315400D01*
G75*
G02*
X8516600Y11534150I0J218750D01*
G01*
X8516600Y11971650D01*
G75*
G02*
X8735350Y12190400I218750J0D01*
G01*
G37*
%TD*%
%TO.C,D1*%
G36*
G01*
X10005350Y13772600D02*
X10517850Y13772600D01*
G75*
G02*
X10736600Y13553850I0J-218750D01*
G01*
X10736600Y13116350D01*
G75*
G02*
X10517850Y12897600I-218750J0D01*
G01*
X10005350Y12897600D01*
G75*
G02*
X9786600Y13116350I0J218750D01*
G01*
X9786600Y13553850D01*
G75*
G02*
X10005350Y13772600I218750J0D01*
G01*
G37*
G36*
G01*
X10005350Y12197600D02*
X10517850Y12197600D01*
G75*
G02*
X10736600Y11978850I0J-218750D01*
G01*
X10736600Y11541350D01*
G75*
G02*
X10517850Y11322600I-218750J0D01*
G01*
X10005350Y11322600D01*
G75*
G02*
X9786600Y11541350I0J218750D01*
G01*
X9786600Y11978850D01*
G75*
G02*
X10005350Y12197600I218750J0D01*
G01*
G37*
%TD*%
%TO.C,C10*%
G36*
G01*
X20134800Y4541300D02*
X20134800Y4196300D01*
G75*
G02*
X19987300Y4048800I-147500J0D01*
G01*
X19692300Y4048800D01*
G75*
G02*
X19544800Y4196300I0J147500D01*
G01*
X19544800Y4541300D01*
G75*
G02*
X19692300Y4688800I147500J0D01*
G01*
X19987300Y4688800D01*
G75*
G02*
X20134800Y4541300I0J-147500D01*
G01*
G37*
G36*
G01*
X19164800Y4541300D02*
X19164800Y4196300D01*
G75*
G02*
X19017300Y4048800I-147500J0D01*
G01*
X18722300Y4048800D01*
G75*
G02*
X18574800Y4196300I0J147500D01*
G01*
X18574800Y4541300D01*
G75*
G02*
X18722300Y4688800I147500J0D01*
G01*
X19017300Y4688800D01*
G75*
G02*
X19164800Y4541300I0J-147500D01*
G01*
G37*
%TD*%
%TO.C,C8*%
G36*
G01*
X18574800Y8819100D02*
X18574800Y9164100D01*
G75*
G02*
X18722300Y9311600I147500J0D01*
G01*
X19017300Y9311600D01*
G75*
G02*
X19164800Y9164100I0J-147500D01*
G01*
X19164800Y8819100D01*
G75*
G02*
X19017300Y8671600I-147500J0D01*
G01*
X18722300Y8671600D01*
G75*
G02*
X18574800Y8819100I0J147500D01*
G01*
G37*
G36*
G01*
X19544800Y8819100D02*
X19544800Y9164100D01*
G75*
G02*
X19692300Y9311600I147500J0D01*
G01*
X19987300Y9311600D01*
G75*
G02*
X20134800Y9164100I0J-147500D01*
G01*
X20134800Y8819100D01*
G75*
G02*
X19987300Y8671600I-147500J0D01*
G01*
X19692300Y8671600D01*
G75*
G02*
X19544800Y8819100I0J147500D01*
G01*
G37*
%TD*%
%TO.C,AE1*%
G36*
G01*
X17102000Y11652599D02*
X17102000Y13352601D01*
G75*
G02*
X17351999Y13602600I249999J0D01*
G01*
X18052001Y13602600D01*
G75*
G02*
X18302000Y13352601I0J-249999D01*
G01*
X18302000Y11652599D01*
G75*
G02*
X18052001Y11402600I-249999J0D01*
G01*
X17351999Y11402600D01*
G75*
G02*
X17102000Y11652599I0J249999D01*
G01*
G37*
G36*
G01*
X22802000Y11652599D02*
X22802000Y13352601D01*
G75*
G02*
X23051999Y13602600I249999J0D01*
G01*
X23752001Y13602600D01*
G75*
G02*
X24002000Y13352601I0J-249999D01*
G01*
X24002000Y11652599D01*
G75*
G02*
X23752001Y11402600I-249999J0D01*
G01*
X23051999Y11402600D01*
G75*
G02*
X22802000Y11652599I0J249999D01*
G01*
G37*
%TD*%
D12*
%TO.C,Y1*%
X20864400Y5605600D03*
X20864400Y7805600D03*
X19064400Y7805600D03*
X19064400Y5605600D03*
%TD*%
%TO.C,U3*%
G36*
G01*
X14720000Y9311599D02*
X14820000Y9311599D01*
G75*
G02*
X14870000Y9261599I0J-50000D01*
G01*
X14870000Y8486599D01*
G75*
G02*
X14820000Y8436599I-50000J0D01*
G01*
X14720000Y8436599D01*
G75*
G02*
X14670000Y8486599I0J50000D01*
G01*
X14670000Y9261599D01*
G75*
G02*
X14720000Y9311599I50000J0D01*
G01*
G37*
G36*
G01*
X14320000Y9311599D02*
X14420000Y9311599D01*
G75*
G02*
X14470000Y9261599I0J-50000D01*
G01*
X14470000Y8486599D01*
G75*
G02*
X14420000Y8436599I-50000J0D01*
G01*
X14320000Y8436599D01*
G75*
G02*
X14270000Y8486599I0J50000D01*
G01*
X14270000Y9261599D01*
G75*
G02*
X14320000Y9311599I50000J0D01*
G01*
G37*
G36*
G01*
X13920000Y9311599D02*
X14020000Y9311599D01*
G75*
G02*
X14070000Y9261599I0J-50000D01*
G01*
X14070000Y8486599D01*
G75*
G02*
X14020000Y8436599I-50000J0D01*
G01*
X13920000Y8436599D01*
G75*
G02*
X13870000Y8486599I0J50000D01*
G01*
X13870000Y9261599D01*
G75*
G02*
X13920000Y9311599I50000J0D01*
G01*
G37*
G36*
G01*
X13520000Y9311599D02*
X13620000Y9311599D01*
G75*
G02*
X13670000Y9261599I0J-50000D01*
G01*
X13670000Y8486599D01*
G75*
G02*
X13620000Y8436599I-50000J0D01*
G01*
X13520000Y8436599D01*
G75*
G02*
X13470000Y8486599I0J50000D01*
G01*
X13470000Y9261599D01*
G75*
G02*
X13520000Y9311599I50000J0D01*
G01*
G37*
G36*
G01*
X13120000Y9311599D02*
X13220000Y9311599D01*
G75*
G02*
X13270000Y9261599I0J-50000D01*
G01*
X13270000Y8486599D01*
G75*
G02*
X13220000Y8436599I-50000J0D01*
G01*
X13120000Y8436599D01*
G75*
G02*
X13070000Y8486599I0J50000D01*
G01*
X13070000Y9261599D01*
G75*
G02*
X13120000Y9311599I50000J0D01*
G01*
G37*
G36*
G01*
X12720000Y9311599D02*
X12820000Y9311599D01*
G75*
G02*
X12870000Y9261599I0J-50000D01*
G01*
X12870000Y8486599D01*
G75*
G02*
X12820000Y8436599I-50000J0D01*
G01*
X12720000Y8436599D01*
G75*
G02*
X12670000Y8486599I0J50000D01*
G01*
X12670000Y9261599D01*
G75*
G02*
X12720000Y9311599I50000J0D01*
G01*
G37*
G36*
G01*
X12320000Y9311599D02*
X12420000Y9311599D01*
G75*
G02*
X12470000Y9261599I0J-50000D01*
G01*
X12470000Y8486599D01*
G75*
G02*
X12420000Y8436599I-50000J0D01*
G01*
X12320000Y8436599D01*
G75*
G02*
X12270000Y8486599I0J50000D01*
G01*
X12270000Y9261599D01*
G75*
G02*
X12320000Y9311599I50000J0D01*
G01*
G37*
G36*
G01*
X11920000Y9311599D02*
X12020000Y9311599D01*
G75*
G02*
X12070000Y9261599I0J-50000D01*
G01*
X12070000Y8486599D01*
G75*
G02*
X12020000Y8436599I-50000J0D01*
G01*
X11920000Y8436599D01*
G75*
G02*
X11870000Y8486599I0J50000D01*
G01*
X11870000Y9261599D01*
G75*
G02*
X11920000Y9311599I50000J0D01*
G01*
G37*
G36*
G01*
X11520000Y9311599D02*
X11620000Y9311599D01*
G75*
G02*
X11670000Y9261599I0J-50000D01*
G01*
X11670000Y8486599D01*
G75*
G02*
X11620000Y8436599I-50000J0D01*
G01*
X11520000Y8436599D01*
G75*
G02*
X11470000Y8486599I0J50000D01*
G01*
X11470000Y9261599D01*
G75*
G02*
X11520000Y9311599I50000J0D01*
G01*
G37*
G36*
G01*
X11120000Y9311599D02*
X11220000Y9311599D01*
G75*
G02*
X11270000Y9261599I0J-50000D01*
G01*
X11270000Y8486599D01*
G75*
G02*
X11220000Y8436599I-50000J0D01*
G01*
X11120000Y8436599D01*
G75*
G02*
X11070000Y8486599I0J50000D01*
G01*
X11070000Y9261599D01*
G75*
G02*
X11120000Y9311599I50000J0D01*
G01*
G37*
G36*
G01*
X10720000Y9311599D02*
X10820000Y9311599D01*
G75*
G02*
X10870000Y9261599I0J-50000D01*
G01*
X10870000Y8486599D01*
G75*
G02*
X10820000Y8436599I-50000J0D01*
G01*
X10720000Y8436599D01*
G75*
G02*
X10670000Y8486599I0J50000D01*
G01*
X10670000Y9261599D01*
G75*
G02*
X10720000Y9311599I50000J0D01*
G01*
G37*
G36*
G01*
X10320000Y9311599D02*
X10420000Y9311599D01*
G75*
G02*
X10470000Y9261599I0J-50000D01*
G01*
X10470000Y8486599D01*
G75*
G02*
X10420000Y8436599I-50000J0D01*
G01*
X10320000Y8436599D01*
G75*
G02*
X10270000Y8486599I0J50000D01*
G01*
X10270000Y9261599D01*
G75*
G02*
X10320000Y9311599I50000J0D01*
G01*
G37*
G36*
G01*
X9920000Y9311599D02*
X10020000Y9311599D01*
G75*
G02*
X10070000Y9261599I0J-50000D01*
G01*
X10070000Y8486599D01*
G75*
G02*
X10020000Y8436599I-50000J0D01*
G01*
X9920000Y8436599D01*
G75*
G02*
X9870000Y8486599I0J50000D01*
G01*
X9870000Y9261599D01*
G75*
G02*
X9920000Y9311599I50000J0D01*
G01*
G37*
G36*
G01*
X9520000Y9311599D02*
X9620000Y9311599D01*
G75*
G02*
X9670000Y9261599I0J-50000D01*
G01*
X9670000Y8486599D01*
G75*
G02*
X9620000Y8436599I-50000J0D01*
G01*
X9520000Y8436599D01*
G75*
G02*
X9470000Y8486599I0J50000D01*
G01*
X9470000Y9261599D01*
G75*
G02*
X9520000Y9311599I50000J0D01*
G01*
G37*
G36*
G01*
X8345000Y8136599D02*
X9120000Y8136599D01*
G75*
G02*
X9170000Y8086599I0J-50000D01*
G01*
X9170000Y7986599D01*
G75*
G02*
X9120000Y7936599I-50000J0D01*
G01*
X8345000Y7936599D01*
G75*
G02*
X8295000Y7986599I0J50000D01*
G01*
X8295000Y8086599D01*
G75*
G02*
X8345000Y8136599I50000J0D01*
G01*
G37*
G36*
G01*
X8345000Y7736599D02*
X9120000Y7736599D01*
G75*
G02*
X9170000Y7686599I0J-50000D01*
G01*
X9170000Y7586599D01*
G75*
G02*
X9120000Y7536599I-50000J0D01*
G01*
X8345000Y7536599D01*
G75*
G02*
X8295000Y7586599I0J50000D01*
G01*
X8295000Y7686599D01*
G75*
G02*
X8345000Y7736599I50000J0D01*
G01*
G37*
G36*
G01*
X8345000Y7336599D02*
X9120000Y7336599D01*
G75*
G02*
X9170000Y7286599I0J-50000D01*
G01*
X9170000Y7186599D01*
G75*
G02*
X9120000Y7136599I-50000J0D01*
G01*
X8345000Y7136599D01*
G75*
G02*
X8295000Y7186599I0J50000D01*
G01*
X8295000Y7286599D01*
G75*
G02*
X8345000Y7336599I50000J0D01*
G01*
G37*
G36*
G01*
X8345000Y6936599D02*
X9120000Y6936599D01*
G75*
G02*
X9170000Y6886599I0J-50000D01*
G01*
X9170000Y6786599D01*
G75*
G02*
X9120000Y6736599I-50000J0D01*
G01*
X8345000Y6736599D01*
G75*
G02*
X8295000Y6786599I0J50000D01*
G01*
X8295000Y6886599D01*
G75*
G02*
X8345000Y6936599I50000J0D01*
G01*
G37*
G36*
G01*
X8345000Y6536599D02*
X9120000Y6536599D01*
G75*
G02*
X9170000Y6486599I0J-50000D01*
G01*
X9170000Y6386599D01*
G75*
G02*
X9120000Y6336599I-50000J0D01*
G01*
X8345000Y6336599D01*
G75*
G02*
X8295000Y6386599I0J50000D01*
G01*
X8295000Y6486599D01*
G75*
G02*
X8345000Y6536599I50000J0D01*
G01*
G37*
G36*
G01*
X8345000Y6136599D02*
X9120000Y6136599D01*
G75*
G02*
X9170000Y6086599I0J-50000D01*
G01*
X9170000Y5986599D01*
G75*
G02*
X9120000Y5936599I-50000J0D01*
G01*
X8345000Y5936599D01*
G75*
G02*
X8295000Y5986599I0J50000D01*
G01*
X8295000Y6086599D01*
G75*
G02*
X8345000Y6136599I50000J0D01*
G01*
G37*
G36*
G01*
X8345000Y5736599D02*
X9120000Y5736599D01*
G75*
G02*
X9170000Y5686599I0J-50000D01*
G01*
X9170000Y5586599D01*
G75*
G02*
X9120000Y5536599I-50000J0D01*
G01*
X8345000Y5536599D01*
G75*
G02*
X8295000Y5586599I0J50000D01*
G01*
X8295000Y5686599D01*
G75*
G02*
X8345000Y5736599I50000J0D01*
G01*
G37*
G36*
G01*
X8345000Y5336599D02*
X9120000Y5336599D01*
G75*
G02*
X9170000Y5286599I0J-50000D01*
G01*
X9170000Y5186599D01*
G75*
G02*
X9120000Y5136599I-50000J0D01*
G01*
X8345000Y5136599D01*
G75*
G02*
X8295000Y5186599I0J50000D01*
G01*
X8295000Y5286599D01*
G75*
G02*
X8345000Y5336599I50000J0D01*
G01*
G37*
G36*
G01*
X8345000Y4936599D02*
X9120000Y4936599D01*
G75*
G02*
X9170000Y4886599I0J-50000D01*
G01*
X9170000Y4786599D01*
G75*
G02*
X9120000Y4736599I-50000J0D01*
G01*
X8345000Y4736599D01*
G75*
G02*
X8295000Y4786599I0J50000D01*
G01*
X8295000Y4886599D01*
G75*
G02*
X8345000Y4936599I50000J0D01*
G01*
G37*
G36*
G01*
X8345000Y4536599D02*
X9120000Y4536599D01*
G75*
G02*
X9170000Y4486599I0J-50000D01*
G01*
X9170000Y4386599D01*
G75*
G02*
X9120000Y4336599I-50000J0D01*
G01*
X8345000Y4336599D01*
G75*
G02*
X8295000Y4386599I0J50000D01*
G01*
X8295000Y4486599D01*
G75*
G02*
X8345000Y4536599I50000J0D01*
G01*
G37*
G36*
G01*
X8345000Y4136599D02*
X9120000Y4136599D01*
G75*
G02*
X9170000Y4086599I0J-50000D01*
G01*
X9170000Y3986599D01*
G75*
G02*
X9120000Y3936599I-50000J0D01*
G01*
X8345000Y3936599D01*
G75*
G02*
X8295000Y3986599I0J50000D01*
G01*
X8295000Y4086599D01*
G75*
G02*
X8345000Y4136599I50000J0D01*
G01*
G37*
G36*
G01*
X8345000Y3736599D02*
X9120000Y3736599D01*
G75*
G02*
X9170000Y3686599I0J-50000D01*
G01*
X9170000Y3586599D01*
G75*
G02*
X9120000Y3536599I-50000J0D01*
G01*
X8345000Y3536599D01*
G75*
G02*
X8295000Y3586599I0J50000D01*
G01*
X8295000Y3686599D01*
G75*
G02*
X8345000Y3736599I50000J0D01*
G01*
G37*
G36*
G01*
X8345000Y3336599D02*
X9120000Y3336599D01*
G75*
G02*
X9170000Y3286599I0J-50000D01*
G01*
X9170000Y3186599D01*
G75*
G02*
X9120000Y3136599I-50000J0D01*
G01*
X8345000Y3136599D01*
G75*
G02*
X8295000Y3186599I0J50000D01*
G01*
X8295000Y3286599D01*
G75*
G02*
X8345000Y3336599I50000J0D01*
G01*
G37*
G36*
G01*
X8345000Y2936599D02*
X9120000Y2936599D01*
G75*
G02*
X9170000Y2886599I0J-50000D01*
G01*
X9170000Y2786599D01*
G75*
G02*
X9120000Y2736599I-50000J0D01*
G01*
X8345000Y2736599D01*
G75*
G02*
X8295000Y2786599I0J50000D01*
G01*
X8295000Y2886599D01*
G75*
G02*
X8345000Y2936599I50000J0D01*
G01*
G37*
G36*
G01*
X9520000Y2436599D02*
X9620000Y2436599D01*
G75*
G02*
X9670000Y2386599I0J-50000D01*
G01*
X9670000Y1611599D01*
G75*
G02*
X9620000Y1561599I-50000J0D01*
G01*
X9520000Y1561599D01*
G75*
G02*
X9470000Y1611599I0J50000D01*
G01*
X9470000Y2386599D01*
G75*
G02*
X9520000Y2436599I50000J0D01*
G01*
G37*
G36*
G01*
X9920000Y2436599D02*
X10020000Y2436599D01*
G75*
G02*
X10070000Y2386599I0J-50000D01*
G01*
X10070000Y1611599D01*
G75*
G02*
X10020000Y1561599I-50000J0D01*
G01*
X9920000Y1561599D01*
G75*
G02*
X9870000Y1611599I0J50000D01*
G01*
X9870000Y2386599D01*
G75*
G02*
X9920000Y2436599I50000J0D01*
G01*
G37*
G36*
G01*
X10320000Y2436599D02*
X10420000Y2436599D01*
G75*
G02*
X10470000Y2386599I0J-50000D01*
G01*
X10470000Y1611599D01*
G75*
G02*
X10420000Y1561599I-50000J0D01*
G01*
X10320000Y1561599D01*
G75*
G02*
X10270000Y1611599I0J50000D01*
G01*
X10270000Y2386599D01*
G75*
G02*
X10320000Y2436599I50000J0D01*
G01*
G37*
G36*
G01*
X10720000Y2436599D02*
X10820000Y2436599D01*
G75*
G02*
X10870000Y2386599I0J-50000D01*
G01*
X10870000Y1611599D01*
G75*
G02*
X10820000Y1561599I-50000J0D01*
G01*
X10720000Y1561599D01*
G75*
G02*
X10670000Y1611599I0J50000D01*
G01*
X10670000Y2386599D01*
G75*
G02*
X10720000Y2436599I50000J0D01*
G01*
G37*
G36*
G01*
X11120000Y2436599D02*
X11220000Y2436599D01*
G75*
G02*
X11270000Y2386599I0J-50000D01*
G01*
X11270000Y1611599D01*
G75*
G02*
X11220000Y1561599I-50000J0D01*
G01*
X11120000Y1561599D01*
G75*
G02*
X11070000Y1611599I0J50000D01*
G01*
X11070000Y2386599D01*
G75*
G02*
X11120000Y2436599I50000J0D01*
G01*
G37*
G36*
G01*
X11520000Y2436599D02*
X11620000Y2436599D01*
G75*
G02*
X11670000Y2386599I0J-50000D01*
G01*
X11670000Y1611599D01*
G75*
G02*
X11620000Y1561599I-50000J0D01*
G01*
X11520000Y1561599D01*
G75*
G02*
X11470000Y1611599I0J50000D01*
G01*
X11470000Y2386599D01*
G75*
G02*
X11520000Y2436599I50000J0D01*
G01*
G37*
G36*
G01*
X11920000Y2436599D02*
X12020000Y2436599D01*
G75*
G02*
X12070000Y2386599I0J-50000D01*
G01*
X12070000Y1611599D01*
G75*
G02*
X12020000Y1561599I-50000J0D01*
G01*
X11920000Y1561599D01*
G75*
G02*
X11870000Y1611599I0J50000D01*
G01*
X11870000Y2386599D01*
G75*
G02*
X11920000Y2436599I50000J0D01*
G01*
G37*
G36*
G01*
X12320000Y2436599D02*
X12420000Y2436599D01*
G75*
G02*
X12470000Y2386599I0J-50000D01*
G01*
X12470000Y1611599D01*
G75*
G02*
X12420000Y1561599I-50000J0D01*
G01*
X12320000Y1561599D01*
G75*
G02*
X12270000Y1611599I0J50000D01*
G01*
X12270000Y2386599D01*
G75*
G02*
X12320000Y2436599I50000J0D01*
G01*
G37*
G36*
G01*
X12720000Y2436599D02*
X12820000Y2436599D01*
G75*
G02*
X12870000Y2386599I0J-50000D01*
G01*
X12870000Y1611599D01*
G75*
G02*
X12820000Y1561599I-50000J0D01*
G01*
X12720000Y1561599D01*
G75*
G02*
X12670000Y1611599I0J50000D01*
G01*
X12670000Y2386599D01*
G75*
G02*
X12720000Y2436599I50000J0D01*
G01*
G37*
G36*
G01*
X13120000Y2436599D02*
X13220000Y2436599D01*
G75*
G02*
X13270000Y2386599I0J-50000D01*
G01*
X13270000Y1611599D01*
G75*
G02*
X13220000Y1561599I-50000J0D01*
G01*
X13120000Y1561599D01*
G75*
G02*
X13070000Y1611599I0J50000D01*
G01*
X13070000Y2386599D01*
G75*
G02*
X13120000Y2436599I50000J0D01*
G01*
G37*
G36*
G01*
X13520000Y2436599D02*
X13620000Y2436599D01*
G75*
G02*
X13670000Y2386599I0J-50000D01*
G01*
X13670000Y1611599D01*
G75*
G02*
X13620000Y1561599I-50000J0D01*
G01*
X13520000Y1561599D01*
G75*
G02*
X13470000Y1611599I0J50000D01*
G01*
X13470000Y2386599D01*
G75*
G02*
X13520000Y2436599I50000J0D01*
G01*
G37*
G36*
G01*
X13920000Y2436599D02*
X14020000Y2436599D01*
G75*
G02*
X14070000Y2386599I0J-50000D01*
G01*
X14070000Y1611599D01*
G75*
G02*
X14020000Y1561599I-50000J0D01*
G01*
X13920000Y1561599D01*
G75*
G02*
X13870000Y1611599I0J50000D01*
G01*
X13870000Y2386599D01*
G75*
G02*
X13920000Y2436599I50000J0D01*
G01*
G37*
G36*
G01*
X14320000Y2436599D02*
X14420000Y2436599D01*
G75*
G02*
X14470000Y2386599I0J-50000D01*
G01*
X14470000Y1611599D01*
G75*
G02*
X14420000Y1561599I-50000J0D01*
G01*
X14320000Y1561599D01*
G75*
G02*
X14270000Y1611599I0J50000D01*
G01*
X14270000Y2386599D01*
G75*
G02*
X14320000Y2436599I50000J0D01*
G01*
G37*
G36*
G01*
X14720000Y2436599D02*
X14820000Y2436599D01*
G75*
G02*
X14870000Y2386599I0J-50000D01*
G01*
X14870000Y1611599D01*
G75*
G02*
X14820000Y1561599I-50000J0D01*
G01*
X14720000Y1561599D01*
G75*
G02*
X14670000Y1611599I0J50000D01*
G01*
X14670000Y2386599D01*
G75*
G02*
X14720000Y2436599I50000J0D01*
G01*
G37*
G36*
G01*
X15220000Y2936599D02*
X15995000Y2936599D01*
G75*
G02*
X16045000Y2886599I0J-50000D01*
G01*
X16045000Y2786599D01*
G75*
G02*
X15995000Y2736599I-50000J0D01*
G01*
X15220000Y2736599D01*
G75*
G02*
X15170000Y2786599I0J50000D01*
G01*
X15170000Y2886599D01*
G75*
G02*
X15220000Y2936599I50000J0D01*
G01*
G37*
G36*
G01*
X15220000Y3336599D02*
X15995000Y3336599D01*
G75*
G02*
X16045000Y3286599I0J-50000D01*
G01*
X16045000Y3186599D01*
G75*
G02*
X15995000Y3136599I-50000J0D01*
G01*
X15220000Y3136599D01*
G75*
G02*
X15170000Y3186599I0J50000D01*
G01*
X15170000Y3286599D01*
G75*
G02*
X15220000Y3336599I50000J0D01*
G01*
G37*
G36*
G01*
X15220000Y3736599D02*
X15995000Y3736599D01*
G75*
G02*
X16045000Y3686599I0J-50000D01*
G01*
X16045000Y3586599D01*
G75*
G02*
X15995000Y3536599I-50000J0D01*
G01*
X15220000Y3536599D01*
G75*
G02*
X15170000Y3586599I0J50000D01*
G01*
X15170000Y3686599D01*
G75*
G02*
X15220000Y3736599I50000J0D01*
G01*
G37*
G36*
G01*
X15220000Y4136599D02*
X15995000Y4136599D01*
G75*
G02*
X16045000Y4086599I0J-50000D01*
G01*
X16045000Y3986599D01*
G75*
G02*
X15995000Y3936599I-50000J0D01*
G01*
X15220000Y3936599D01*
G75*
G02*
X15170000Y3986599I0J50000D01*
G01*
X15170000Y4086599D01*
G75*
G02*
X15220000Y4136599I50000J0D01*
G01*
G37*
G36*
G01*
X15220000Y4536599D02*
X15995000Y4536599D01*
G75*
G02*
X16045000Y4486599I0J-50000D01*
G01*
X16045000Y4386599D01*
G75*
G02*
X15995000Y4336599I-50000J0D01*
G01*
X15220000Y4336599D01*
G75*
G02*
X15170000Y4386599I0J50000D01*
G01*
X15170000Y4486599D01*
G75*
G02*
X15220000Y4536599I50000J0D01*
G01*
G37*
G36*
G01*
X15220000Y4936599D02*
X15995000Y4936599D01*
G75*
G02*
X16045000Y4886599I0J-50000D01*
G01*
X16045000Y4786599D01*
G75*
G02*
X15995000Y4736599I-50000J0D01*
G01*
X15220000Y4736599D01*
G75*
G02*
X15170000Y4786599I0J50000D01*
G01*
X15170000Y4886599D01*
G75*
G02*
X15220000Y4936599I50000J0D01*
G01*
G37*
G36*
G01*
X15220000Y5336599D02*
X15995000Y5336599D01*
G75*
G02*
X16045000Y5286599I0J-50000D01*
G01*
X16045000Y5186599D01*
G75*
G02*
X15995000Y5136599I-50000J0D01*
G01*
X15220000Y5136599D01*
G75*
G02*
X15170000Y5186599I0J50000D01*
G01*
X15170000Y5286599D01*
G75*
G02*
X15220000Y5336599I50000J0D01*
G01*
G37*
G36*
G01*
X15220000Y5736599D02*
X15995000Y5736599D01*
G75*
G02*
X16045000Y5686599I0J-50000D01*
G01*
X16045000Y5586599D01*
G75*
G02*
X15995000Y5536599I-50000J0D01*
G01*
X15220000Y5536599D01*
G75*
G02*
X15170000Y5586599I0J50000D01*
G01*
X15170000Y5686599D01*
G75*
G02*
X15220000Y5736599I50000J0D01*
G01*
G37*
G36*
G01*
X15220000Y6136599D02*
X15995000Y6136599D01*
G75*
G02*
X16045000Y6086599I0J-50000D01*
G01*
X16045000Y5986599D01*
G75*
G02*
X15995000Y5936599I-50000J0D01*
G01*
X15220000Y5936599D01*
G75*
G02*
X15170000Y5986599I0J50000D01*
G01*
X15170000Y6086599D01*
G75*
G02*
X15220000Y6136599I50000J0D01*
G01*
G37*
G36*
G01*
X15220000Y6536599D02*
X15995000Y6536599D01*
G75*
G02*
X16045000Y6486599I0J-50000D01*
G01*
X16045000Y6386599D01*
G75*
G02*
X15995000Y6336599I-50000J0D01*
G01*
X15220000Y6336599D01*
G75*
G02*
X15170000Y6386599I0J50000D01*
G01*
X15170000Y6486599D01*
G75*
G02*
X15220000Y6536599I50000J0D01*
G01*
G37*
G36*
G01*
X15220000Y6936599D02*
X15995000Y6936599D01*
G75*
G02*
X16045000Y6886599I0J-50000D01*
G01*
X16045000Y6786599D01*
G75*
G02*
X15995000Y6736599I-50000J0D01*
G01*
X15220000Y6736599D01*
G75*
G02*
X15170000Y6786599I0J50000D01*
G01*
X15170000Y6886599D01*
G75*
G02*
X15220000Y6936599I50000J0D01*
G01*
G37*
G36*
G01*
X15220000Y7336599D02*
X15995000Y7336599D01*
G75*
G02*
X16045000Y7286599I0J-50000D01*
G01*
X16045000Y7186599D01*
G75*
G02*
X15995000Y7136599I-50000J0D01*
G01*
X15220000Y7136599D01*
G75*
G02*
X15170000Y7186599I0J50000D01*
G01*
X15170000Y7286599D01*
G75*
G02*
X15220000Y7336599I50000J0D01*
G01*
G37*
G36*
G01*
X15220000Y7736599D02*
X15995000Y7736599D01*
G75*
G02*
X16045000Y7686599I0J-50000D01*
G01*
X16045000Y7586599D01*
G75*
G02*
X15995000Y7536599I-50000J0D01*
G01*
X15220000Y7536599D01*
G75*
G02*
X15170000Y7586599I0J50000D01*
G01*
X15170000Y7686599D01*
G75*
G02*
X15220000Y7736599I50000J0D01*
G01*
G37*
G36*
G01*
X15220000Y8136599D02*
X15995000Y8136599D01*
G75*
G02*
X16045000Y8086599I0J-50000D01*
G01*
X16045000Y7986599D01*
G75*
G02*
X15995000Y7936599I-50000J0D01*
G01*
X15220000Y7936599D01*
G75*
G02*
X15170000Y7986599I0J50000D01*
G01*
X15170000Y8086599D01*
G75*
G02*
X15220000Y8136599I50000J0D01*
G01*
G37*
G36*
G01*
X13955000Y8101599D02*
X14585000Y8101599D01*
G75*
G02*
X14835000Y7851599I0J-250000D01*
G01*
X14835000Y7221599D01*
G75*
G02*
X14585000Y6971599I-250000J0D01*
G01*
X13955000Y6971599D01*
G75*
G02*
X13705000Y7221599I0J250000D01*
G01*
X13705000Y7851599D01*
G75*
G02*
X13955000Y8101599I250000J0D01*
G01*
G37*
G36*
G01*
X12555000Y8101599D02*
X13185000Y8101599D01*
G75*
G02*
X13435000Y7851599I0J-250000D01*
G01*
X13435000Y7221599D01*
G75*
G02*
X13185000Y6971599I-250000J0D01*
G01*
X12555000Y6971599D01*
G75*
G02*
X12305000Y7221599I0J250000D01*
G01*
X12305000Y7851599D01*
G75*
G02*
X12555000Y8101599I250000J0D01*
G01*
G37*
G36*
G01*
X11155000Y8101599D02*
X11785000Y8101599D01*
G75*
G02*
X12035000Y7851599I0J-250000D01*
G01*
X12035000Y7221599D01*
G75*
G02*
X11785000Y6971599I-250000J0D01*
G01*
X11155000Y6971599D01*
G75*
G02*
X10905000Y7221599I0J250000D01*
G01*
X10905000Y7851599D01*
G75*
G02*
X11155000Y8101599I250000J0D01*
G01*
G37*
G36*
G01*
X9755000Y8101599D02*
X10385000Y8101599D01*
G75*
G02*
X10635000Y7851599I0J-250000D01*
G01*
X10635000Y7221599D01*
G75*
G02*
X10385000Y6971599I-250000J0D01*
G01*
X9755000Y6971599D01*
G75*
G02*
X9505000Y7221599I0J250000D01*
G01*
X9505000Y7851599D01*
G75*
G02*
X9755000Y8101599I250000J0D01*
G01*
G37*
G36*
G01*
X13955000Y6701599D02*
X14585000Y6701599D01*
G75*
G02*
X14835000Y6451599I0J-250000D01*
G01*
X14835000Y5821599D01*
G75*
G02*
X14585000Y5571599I-250000J0D01*
G01*
X13955000Y5571599D01*
G75*
G02*
X13705000Y5821599I0J250000D01*
G01*
X13705000Y6451599D01*
G75*
G02*
X13955000Y6701599I250000J0D01*
G01*
G37*
G36*
G01*
X12555000Y6701599D02*
X13185000Y6701599D01*
G75*
G02*
X13435000Y6451599I0J-250000D01*
G01*
X13435000Y5821599D01*
G75*
G02*
X13185000Y5571599I-250000J0D01*
G01*
X12555000Y5571599D01*
G75*
G02*
X12305000Y5821599I0J250000D01*
G01*
X12305000Y6451599D01*
G75*
G02*
X12555000Y6701599I250000J0D01*
G01*
G37*
G36*
G01*
X11155000Y6701599D02*
X11785000Y6701599D01*
G75*
G02*
X12035000Y6451599I0J-250000D01*
G01*
X12035000Y5821599D01*
G75*
G02*
X11785000Y5571599I-250000J0D01*
G01*
X11155000Y5571599D01*
G75*
G02*
X10905000Y5821599I0J250000D01*
G01*
X10905000Y6451599D01*
G75*
G02*
X11155000Y6701599I250000J0D01*
G01*
G37*
G36*
G01*
X9755000Y6701599D02*
X10385000Y6701599D01*
G75*
G02*
X10635000Y6451599I0J-250000D01*
G01*
X10635000Y5821599D01*
G75*
G02*
X10385000Y5571599I-250000J0D01*
G01*
X9755000Y5571599D01*
G75*
G02*
X9505000Y5821599I0J250000D01*
G01*
X9505000Y6451599D01*
G75*
G02*
X9755000Y6701599I250000J0D01*
G01*
G37*
G36*
G01*
X13955000Y5301599D02*
X14585000Y5301599D01*
G75*
G02*
X14835000Y5051599I0J-250000D01*
G01*
X14835000Y4421599D01*
G75*
G02*
X14585000Y4171599I-250000J0D01*
G01*
X13955000Y4171599D01*
G75*
G02*
X13705000Y4421599I0J250000D01*
G01*
X13705000Y5051599D01*
G75*
G02*
X13955000Y5301599I250000J0D01*
G01*
G37*
G36*
G01*
X12555000Y5301599D02*
X13185000Y5301599D01*
G75*
G02*
X13435000Y5051599I0J-250000D01*
G01*
X13435000Y4421599D01*
G75*
G02*
X13185000Y4171599I-250000J0D01*
G01*
X12555000Y4171599D01*
G75*
G02*
X12305000Y4421599I0J250000D01*
G01*
X12305000Y5051599D01*
G75*
G02*
X12555000Y5301599I250000J0D01*
G01*
G37*
G36*
G01*
X11155000Y5301599D02*
X11785000Y5301599D01*
G75*
G02*
X12035000Y5051599I0J-250000D01*
G01*
X12035000Y4421599D01*
G75*
G02*
X11785000Y4171599I-250000J0D01*
G01*
X11155000Y4171599D01*
G75*
G02*
X10905000Y4421599I0J250000D01*
G01*
X10905000Y5051599D01*
G75*
G02*
X11155000Y5301599I250000J0D01*
G01*
G37*
G36*
G01*
X9755000Y5301599D02*
X10385000Y5301599D01*
G75*
G02*
X10635000Y5051599I0J-250000D01*
G01*
X10635000Y4421599D01*
G75*
G02*
X10385000Y4171599I-250000J0D01*
G01*
X9755000Y4171599D01*
G75*
G02*
X9505000Y4421599I0J250000D01*
G01*
X9505000Y5051599D01*
G75*
G02*
X9755000Y5301599I250000J0D01*
G01*
G37*
G36*
G01*
X13955000Y3901599D02*
X14585000Y3901599D01*
G75*
G02*
X14835000Y3651599I0J-250000D01*
G01*
X14835000Y3021599D01*
G75*
G02*
X14585000Y2771599I-250000J0D01*
G01*
X13955000Y2771599D01*
G75*
G02*
X13705000Y3021599I0J250000D01*
G01*
X13705000Y3651599D01*
G75*
G02*
X13955000Y3901599I250000J0D01*
G01*
G37*
G36*
G01*
X12555000Y3901599D02*
X13185000Y3901599D01*
G75*
G02*
X13435000Y3651599I0J-250000D01*
G01*
X13435000Y3021599D01*
G75*
G02*
X13185000Y2771599I-250000J0D01*
G01*
X12555000Y2771599D01*
G75*
G02*
X12305000Y3021599I0J250000D01*
G01*
X12305000Y3651599D01*
G75*
G02*
X12555000Y3901599I250000J0D01*
G01*
G37*
G36*
G01*
X11155000Y3901599D02*
X11785000Y3901599D01*
G75*
G02*
X12035000Y3651599I0J-250000D01*
G01*
X12035000Y3021599D01*
G75*
G02*
X11785000Y2771599I-250000J0D01*
G01*
X11155000Y2771599D01*
G75*
G02*
X10905000Y3021599I0J250000D01*
G01*
X10905000Y3651599D01*
G75*
G02*
X11155000Y3901599I250000J0D01*
G01*
G37*
G36*
G01*
X9755000Y3901599D02*
X10385000Y3901599D01*
G75*
G02*
X10635000Y3651599I0J-250000D01*
G01*
X10635000Y3021599D01*
G75*
G02*
X10385000Y2771599I-250000J0D01*
G01*
X9755000Y2771599D01*
G75*
G02*
X9505000Y3021599I0J250000D01*
G01*
X9505000Y3651599D01*
G75*
G02*
X9755000Y3901599I250000J0D01*
G01*
G37*
%TD*%
%TO.C,R7*%
G36*
G01*
X7498300Y6317200D02*
X7843300Y6317200D01*
G75*
G02*
X7990800Y6169700I0J-147500D01*
G01*
X7990800Y5874700D01*
G75*
G02*
X7843300Y5727200I-147500J0D01*
G01*
X7498300Y5727200D01*
G75*
G02*
X7350800Y5874700I0J147500D01*
G01*
X7350800Y6169700D01*
G75*
G02*
X7498300Y6317200I147500J0D01*
G01*
G37*
G36*
G01*
X7498300Y5347200D02*
X7843300Y5347200D01*
G75*
G02*
X7990800Y5199700I0J-147500D01*
G01*
X7990800Y4904700D01*
G75*
G02*
X7843300Y4757200I-147500J0D01*
G01*
X7498300Y4757200D01*
G75*
G02*
X7350800Y4904700I0J147500D01*
G01*
X7350800Y5199700D01*
G75*
G02*
X7498300Y5347200I147500J0D01*
G01*
G37*
%TD*%
%TO.C,R6*%
G36*
G01*
X18153600Y9174260D02*
X18153600Y8829260D01*
G75*
G02*
X18006100Y8681760I-147500J0D01*
G01*
X17711100Y8681760D01*
G75*
G02*
X17563600Y8829260I0J147500D01*
G01*
X17563600Y9174260D01*
G75*
G02*
X17711100Y9321760I147500J0D01*
G01*
X18006100Y9321760D01*
G75*
G02*
X18153600Y9174260I0J-147500D01*
G01*
G37*
G36*
G01*
X17183600Y9174260D02*
X17183600Y8829260D01*
G75*
G02*
X17036100Y8681760I-147500J0D01*
G01*
X16741100Y8681760D01*
G75*
G02*
X16593600Y8829260I0J147500D01*
G01*
X16593600Y9174260D01*
G75*
G02*
X16741100Y9321760I147500J0D01*
G01*
X17036100Y9321760D01*
G75*
G02*
X17183600Y9174260I0J-147500D01*
G01*
G37*
%TD*%
%TO.C,R5*%
G36*
G01*
X8046500Y9583200D02*
X7701500Y9583200D01*
G75*
G02*
X7554000Y9730700I0J147500D01*
G01*
X7554000Y10025700D01*
G75*
G02*
X7701500Y10173200I147500J0D01*
G01*
X8046500Y10173200D01*
G75*
G02*
X8194000Y10025700I0J-147500D01*
G01*
X8194000Y9730700D01*
G75*
G02*
X8046500Y9583200I-147500J0D01*
G01*
G37*
G36*
G01*
X8046500Y10553200D02*
X7701500Y10553200D01*
G75*
G02*
X7554000Y10700700I0J147500D01*
G01*
X7554000Y10995700D01*
G75*
G02*
X7701500Y11143200I147500J0D01*
G01*
X8046500Y11143200D01*
G75*
G02*
X8194000Y10995700I0J-147500D01*
G01*
X8194000Y10700700D01*
G75*
G02*
X8046500Y10553200I-147500J0D01*
G01*
G37*
%TD*%
%TO.C,L1*%
G36*
G01*
X14663200Y11917900D02*
X14663200Y12262900D01*
G75*
G02*
X14810700Y12410400I147500J0D01*
G01*
X15105700Y12410400D01*
G75*
G02*
X15253200Y12262900I0J-147500D01*
G01*
X15253200Y11917900D01*
G75*
G02*
X15105700Y11770400I-147500J0D01*
G01*
X14810700Y11770400D01*
G75*
G02*
X14663200Y11917900I0J147500D01*
G01*
G37*
G36*
G01*
X15633200Y11917900D02*
X15633200Y12262900D01*
G75*
G02*
X15780700Y12410400I147500J0D01*
G01*
X16075700Y12410400D01*
G75*
G02*
X16223200Y12262900I0J-147500D01*
G01*
X16223200Y11917900D01*
G75*
G02*
X16075700Y11770400I-147500J0D01*
G01*
X15780700Y11770400D01*
G75*
G02*
X15633200Y11917900I0J147500D01*
G01*
G37*
%TD*%
%TO.C,D11*%
G36*
G01*
X24192200Y7800050D02*
X24192200Y7287550D01*
G75*
G02*
X23973450Y7068800I-218750J0D01*
G01*
X23535950Y7068800D01*
G75*
G02*
X23317200Y7287550I0J218750D01*
G01*
X23317200Y7800050D01*
G75*
G02*
X23535950Y8018800I218750J0D01*
G01*
X23973450Y8018800D01*
G75*
G02*
X24192200Y7800050I0J-218750D01*
G01*
G37*
G36*
G01*
X22617200Y7800050D02*
X22617200Y7287550D01*
G75*
G02*
X22398450Y7068800I-218750J0D01*
G01*
X21960950Y7068800D01*
G75*
G02*
X21742200Y7287550I0J218750D01*
G01*
X21742200Y7800050D01*
G75*
G02*
X21960950Y8018800I218750J0D01*
G01*
X22398450Y8018800D01*
G75*
G02*
X22617200Y7800050I0J-218750D01*
G01*
G37*
%TD*%
%TO.C,D10*%
G36*
G01*
X24192200Y6631250D02*
X24192200Y6118750D01*
G75*
G02*
X23973450Y5900000I-218750J0D01*
G01*
X23535950Y5900000D01*
G75*
G02*
X23317200Y6118750I0J218750D01*
G01*
X23317200Y6631250D01*
G75*
G02*
X23535950Y6850000I218750J0D01*
G01*
X23973450Y6850000D01*
G75*
G02*
X24192200Y6631250I0J-218750D01*
G01*
G37*
G36*
G01*
X22617200Y6631250D02*
X22617200Y6118750D01*
G75*
G02*
X22398450Y5900000I-218750J0D01*
G01*
X21960950Y5900000D01*
G75*
G02*
X21742200Y6118750I0J218750D01*
G01*
X21742200Y6631250D01*
G75*
G02*
X21960950Y6850000I218750J0D01*
G01*
X22398450Y6850000D01*
G75*
G02*
X22617200Y6631250I0J-218750D01*
G01*
G37*
%TD*%
%TO.C,D3*%
G36*
G01*
X7465350Y13772600D02*
X7977850Y13772600D01*
G75*
G02*
X8196600Y13553850I0J-218750D01*
G01*
X8196600Y13116350D01*
G75*
G02*
X7977850Y12897600I-218750J0D01*
G01*
X7465350Y12897600D01*
G75*
G02*
X7246600Y13116350I0J218750D01*
G01*
X7246600Y13553850D01*
G75*
G02*
X7465350Y13772600I218750J0D01*
G01*
G37*
G36*
G01*
X7465350Y12197600D02*
X7977850Y12197600D01*
G75*
G02*
X8196600Y11978850I0J-218750D01*
G01*
X8196600Y11541350D01*
G75*
G02*
X7977850Y11322600I-218750J0D01*
G01*
X7465350Y11322600D01*
G75*
G02*
X7246600Y11541350I0J218750D01*
G01*
X7246600Y11978850D01*
G75*
G02*
X7465350Y12197600I218750J0D01*
G01*
G37*
%TD*%
%TO.C,C14*%
G36*
G01*
X7348000Y792700D02*
X7348000Y1137700D01*
G75*
G02*
X7495500Y1285200I147500J0D01*
G01*
X7790500Y1285200D01*
G75*
G02*
X7938000Y1137700I0J-147500D01*
G01*
X7938000Y792700D01*
G75*
G02*
X7790500Y645200I-147500J0D01*
G01*
X7495500Y645200D01*
G75*
G02*
X7348000Y792700I0J147500D01*
G01*
G37*
G36*
G01*
X8318000Y792700D02*
X8318000Y1137700D01*
G75*
G02*
X8465500Y1285200I147500J0D01*
G01*
X8760500Y1285200D01*
G75*
G02*
X8908000Y1137700I0J-147500D01*
G01*
X8908000Y792700D01*
G75*
G02*
X8760500Y645200I-147500J0D01*
G01*
X8465500Y645200D01*
G75*
G02*
X8318000Y792700I0J147500D01*
G01*
G37*
%TD*%
%TO.C,C13*%
G36*
G01*
X7817900Y1582200D02*
X7472900Y1582200D01*
G75*
G02*
X7325400Y1729700I0J147500D01*
G01*
X7325400Y2024700D01*
G75*
G02*
X7472900Y2172200I147500J0D01*
G01*
X7817900Y2172200D01*
G75*
G02*
X7965400Y2024700I0J-147500D01*
G01*
X7965400Y1729700D01*
G75*
G02*
X7817900Y1582200I-147500J0D01*
G01*
G37*
G36*
G01*
X7817900Y2552200D02*
X7472900Y2552200D01*
G75*
G02*
X7325400Y2699700I0J147500D01*
G01*
X7325400Y2994700D01*
G75*
G02*
X7472900Y3142200I147500J0D01*
G01*
X7817900Y3142200D01*
G75*
G02*
X7965400Y2994700I0J-147500D01*
G01*
X7965400Y2699700D01*
G75*
G02*
X7817900Y2552200I-147500J0D01*
G01*
G37*
%TD*%
%TO.C,C12*%
G36*
G01*
X18153600Y2712500D02*
X18153600Y2367500D01*
G75*
G02*
X18006100Y2220000I-147500J0D01*
G01*
X17711100Y2220000D01*
G75*
G02*
X17563600Y2367500I0J147500D01*
G01*
X17563600Y2712500D01*
G75*
G02*
X17711100Y2860000I147500J0D01*
G01*
X18006100Y2860000D01*
G75*
G02*
X18153600Y2712500I0J-147500D01*
G01*
G37*
G36*
G01*
X17183600Y2712500D02*
X17183600Y2367500D01*
G75*
G02*
X17036100Y2220000I-147500J0D01*
G01*
X16741100Y2220000D01*
G75*
G02*
X16593600Y2367500I0J147500D01*
G01*
X16593600Y2712500D01*
G75*
G02*
X16741100Y2860000I147500J0D01*
G01*
X17036100Y2860000D01*
G75*
G02*
X17183600Y2712500I0J-147500D01*
G01*
G37*
%TD*%
%TO.C,C11*%
G36*
G01*
X18153600Y5912900D02*
X18153600Y5567900D01*
G75*
G02*
X18006100Y5420400I-147500J0D01*
G01*
X17711100Y5420400D01*
G75*
G02*
X17563600Y5567900I0J147500D01*
G01*
X17563600Y5912900D01*
G75*
G02*
X17711100Y6060400I147500J0D01*
G01*
X18006100Y6060400D01*
G75*
G02*
X18153600Y5912900I0J-147500D01*
G01*
G37*
G36*
G01*
X17183600Y5912900D02*
X17183600Y5567900D01*
G75*
G02*
X17036100Y5420400I-147500J0D01*
G01*
X16741100Y5420400D01*
G75*
G02*
X16593600Y5567900I0J147500D01*
G01*
X16593600Y5912900D01*
G75*
G02*
X16741100Y6060400I147500J0D01*
G01*
X17036100Y6060400D01*
G75*
G02*
X17183600Y5912900I0J-147500D01*
G01*
G37*
%TD*%
%TO.C,C16*%
G36*
G01*
X15777900Y11547200D02*
X16122900Y11547200D01*
G75*
G02*
X16270400Y11399700I0J-147500D01*
G01*
X16270400Y11104700D01*
G75*
G02*
X16122900Y10957200I-147500J0D01*
G01*
X15777900Y10957200D01*
G75*
G02*
X15630400Y11104700I0J147500D01*
G01*
X15630400Y11399700D01*
G75*
G02*
X15777900Y11547200I147500J0D01*
G01*
G37*
G36*
G01*
X15777900Y10577200D02*
X16122900Y10577200D01*
G75*
G02*
X16270400Y10429700I0J-147500D01*
G01*
X16270400Y10134700D01*
G75*
G02*
X16122900Y9987200I-147500J0D01*
G01*
X15777900Y9987200D01*
G75*
G02*
X15630400Y10134700I0J147500D01*
G01*
X15630400Y10429700D01*
G75*
G02*
X15777900Y10577200I147500J0D01*
G01*
G37*
%TD*%
%TO.C,C9*%
G36*
G01*
X7498300Y8329600D02*
X7843300Y8329600D01*
G75*
G02*
X7990800Y8182100I0J-147500D01*
G01*
X7990800Y7887100D01*
G75*
G02*
X7843300Y7739600I-147500J0D01*
G01*
X7498300Y7739600D01*
G75*
G02*
X7350800Y7887100I0J147500D01*
G01*
X7350800Y8182100D01*
G75*
G02*
X7498300Y8329600I147500J0D01*
G01*
G37*
G36*
G01*
X7498300Y7359600D02*
X7843300Y7359600D01*
G75*
G02*
X7990800Y7212100I0J-147500D01*
G01*
X7990800Y6917100D01*
G75*
G02*
X7843300Y6769600I-147500J0D01*
G01*
X7498300Y6769600D01*
G75*
G02*
X7350800Y6917100I0J147500D01*
G01*
X7350800Y7212100D01*
G75*
G02*
X7498300Y7359600I147500J0D01*
G01*
G37*
%TD*%
%TO.C,C15*%
G36*
G01*
X14841500Y11527600D02*
X15186500Y11527600D01*
G75*
G02*
X15334000Y11380100I0J-147500D01*
G01*
X15334000Y11085100D01*
G75*
G02*
X15186500Y10937600I-147500J0D01*
G01*
X14841500Y10937600D01*
G75*
G02*
X14694000Y11085100I0J147500D01*
G01*
X14694000Y11380100D01*
G75*
G02*
X14841500Y11527600I147500J0D01*
G01*
G37*
G36*
G01*
X14841500Y10557600D02*
X15186500Y10557600D01*
G75*
G02*
X15334000Y10410100I0J-147500D01*
G01*
X15334000Y10115100D01*
G75*
G02*
X15186500Y9967600I-147500J0D01*
G01*
X14841500Y9967600D01*
G75*
G02*
X14694000Y10115100I0J147500D01*
G01*
X14694000Y10410100D01*
G75*
G02*
X14841500Y10557600I147500J0D01*
G01*
G37*
%TD*%
%TO.C,C7*%
G36*
G01*
X16593600Y7107140D02*
X16593600Y7452140D01*
G75*
G02*
X16741100Y7599640I147500J0D01*
G01*
X17036100Y7599640D01*
G75*
G02*
X17183600Y7452140I0J-147500D01*
G01*
X17183600Y7107140D01*
G75*
G02*
X17036100Y6959640I-147500J0D01*
G01*
X16741100Y6959640D01*
G75*
G02*
X16593600Y7107140I0J147500D01*
G01*
G37*
G36*
G01*
X17563600Y7107140D02*
X17563600Y7452140D01*
G75*
G02*
X17711100Y7599640I147500J0D01*
G01*
X18006100Y7599640D01*
G75*
G02*
X18153600Y7452140I0J-147500D01*
G01*
X18153600Y7107140D01*
G75*
G02*
X18006100Y6959640I-147500J0D01*
G01*
X17711100Y6959640D01*
G75*
G02*
X17563600Y7107140I0J147500D01*
G01*
G37*
%TD*%
%TO.C,C6*%
G36*
G01*
X16593600Y7970740D02*
X16593600Y8315740D01*
G75*
G02*
X16741100Y8463240I147500J0D01*
G01*
X17036100Y8463240D01*
G75*
G02*
X17183600Y8315740I0J-147500D01*
G01*
X17183600Y7970740D01*
G75*
G02*
X17036100Y7823240I-147500J0D01*
G01*
X16741100Y7823240D01*
G75*
G02*
X16593600Y7970740I0J147500D01*
G01*
G37*
G36*
G01*
X17563600Y7970740D02*
X17563600Y8315740D01*
G75*
G02*
X17711100Y8463240I147500J0D01*
G01*
X18006100Y8463240D01*
G75*
G02*
X18153600Y8315740I0J-147500D01*
G01*
X18153600Y7970740D01*
G75*
G02*
X18006100Y7823240I-147500J0D01*
G01*
X17711100Y7823240D01*
G75*
G02*
X17563600Y7970740I0J147500D01*
G01*
G37*
%TD*%
%TO.C,C5*%
G36*
G01*
X18153600Y10027700D02*
X18153600Y9682700D01*
G75*
G02*
X18006100Y9535200I-147500J0D01*
G01*
X17711100Y9535200D01*
G75*
G02*
X17563600Y9682700I0J147500D01*
G01*
X17563600Y10027700D01*
G75*
G02*
X17711100Y10175200I147500J0D01*
G01*
X18006100Y10175200D01*
G75*
G02*
X18153600Y10027700I0J-147500D01*
G01*
G37*
G36*
G01*
X17183600Y10027700D02*
X17183600Y9682700D01*
G75*
G02*
X17036100Y9535200I-147500J0D01*
G01*
X16741100Y9535200D01*
G75*
G02*
X16593600Y9682700I0J147500D01*
G01*
X16593600Y10027700D01*
G75*
G02*
X16741100Y10175200I147500J0D01*
G01*
X17036100Y10175200D01*
G75*
G02*
X17183600Y10027700I0J-147500D01*
G01*
G37*
%TD*%
%TO.C,C3*%
G36*
G01*
X13772600Y11483050D02*
X13772600Y10970550D01*
G75*
G02*
X13553850Y10751800I-218750J0D01*
G01*
X13116350Y10751800D01*
G75*
G02*
X12897600Y10970550I0J218750D01*
G01*
X12897600Y11483050D01*
G75*
G02*
X13116350Y11701800I218750J0D01*
G01*
X13553850Y11701800D01*
G75*
G02*
X13772600Y11483050I0J-218750D01*
G01*
G37*
G36*
G01*
X12197600Y11483050D02*
X12197600Y10970550D01*
G75*
G02*
X11978850Y10751800I-218750J0D01*
G01*
X11541350Y10751800D01*
G75*
G02*
X11322600Y10970550I0J218750D01*
G01*
X11322600Y11483050D01*
G75*
G02*
X11541350Y11701800I218750J0D01*
G01*
X11978850Y11701800D01*
G75*
G02*
X12197600Y11483050I0J-218750D01*
G01*
G37*
%TD*%
%TO.C,C4*%
G36*
G01*
X13784800Y10434100D02*
X13784800Y10089100D01*
G75*
G02*
X13637300Y9941600I-147500J0D01*
G01*
X13342300Y9941600D01*
G75*
G02*
X13194800Y10089100I0J147500D01*
G01*
X13194800Y10434100D01*
G75*
G02*
X13342300Y10581600I147500J0D01*
G01*
X13637300Y10581600D01*
G75*
G02*
X13784800Y10434100I0J-147500D01*
G01*
G37*
G36*
G01*
X12814800Y10434100D02*
X12814800Y10089100D01*
G75*
G02*
X12667300Y9941600I-147500J0D01*
G01*
X12372300Y9941600D01*
G75*
G02*
X12224800Y10089100I0J147500D01*
G01*
X12224800Y10434100D01*
G75*
G02*
X12372300Y10581600I147500J0D01*
G01*
X12667300Y10581600D01*
G75*
G02*
X12814800Y10434100I0J-147500D01*
G01*
G37*
%TD*%
M02*
