M48
; DRILL file {KiCad (5.1.6)-1} date 01/16/22 04:32:38
; FORMAT={-:-/ absolute / metric / decimal}
; #@! TF.CreationDate,2022-01-16T04:32:38+08:00
; #@! TF.GenerationSoftware,Kicad,Pcbnew,(5.1.6)-1
; #@! TF.FileFunction,Plated,1,2,PTH
FMAT,2
METRIC
T1C0.200
T2C0.600
T3C0.900
%
G90
G05
T1
X6.3Y2.4
X6.35Y10.414
X6.452Y9.398
X6.452Y4.572
X6.655Y7.772
X6.67Y6.756
X6.706Y6.198
X6.85Y2.9
X6.85Y1.85
X7.447Y3.637
X7.468Y4.267
X7.645Y1.448
X7.722Y8.839
X7.823Y2.692
X11.4Y10.6
X11.5Y13.5
X11.8Y10.1
X12.35Y10.85
X12.4Y9.9
X12.6Y3.0
X12.75Y13.5
X13.005Y9.703
X13.2Y3.0
X13.5Y7.0
X13.5Y6.0
X13.614Y10.871
X13.8Y3.0
X14.0Y13.5
X14.4Y3.0
X14.5Y7.0
X14.5Y6.0
X15.138Y9.042
X15.2Y1.569
X15.25Y13.5
X15.825Y2.45
X16.65Y13.5
X16.65Y12.7
X16.65Y11.455
X16.65Y10.82
X16.65Y10.15
X16.764Y7.237
X16.764Y5.893
X16.764Y2.692
X17.6Y10.8
X17.678Y8.89
X17.9Y7.9
X17.9Y7.3
X18.05Y6.0
X18.55Y9.8
X18.6Y10.8
X19.2Y5.8
X19.202Y5.029
X19.279Y3.175
X19.6Y10.8
X20.1Y7.45
X20.117Y7.925
X20.2Y1.4
X20.375Y3.8
X20.6Y10.8
X20.65Y3.25
X21.075Y2.775
X21.6Y10.8
X22.6Y10.8
X22.7Y6.15
X23.6Y10.8
X23.675Y2.775
X23.96Y1.41
X24.099Y9.55
X24.2Y4.113
X24.325Y13.4
X24.325Y12.8
X24.325Y12.0
X24.325Y11.4
X24.435Y10.211
X25.019Y10.846
X25.651Y9.601
X25.925Y4.05
X25.95Y7.45
X26.34Y3.15
X26.8Y5.8
T2
G00X0.511Y12.595
M15
G01X1.711Y12.595
M16
G05
G00X0.511Y1.405
M15
G01X1.711Y1.405
M16
G05
G00X4.781Y12.595
M15
G01X5.581Y12.595
M16
G05
G00X4.781Y1.405
M15
G01X5.581Y1.405
M16
G05
T3
G00X3.23Y12.71
M15
G01X1.63Y12.71
M16
G05
G00X3.23Y1.31
M15
G01X1.63Y1.31
M16
G05
T0
M30
