%TF.GenerationSoftware,KiCad,Pcbnew,(5.1.6)-1*%
%TF.CreationDate,2022-01-16T18:26:27+08:00*%
%TF.ProjectId,esp32s2-uart,65737033-3273-4322-9d75-6172742e6b69,rev?*%
%TF.SameCoordinates,Original*%
%TF.FileFunction,Legend,Top*%
%TF.FilePolarity,Positive*%
%FSLAX46Y46*%
G04 Gerber Fmt 4.6, Leading zero omitted, Abs format (unit mm)*
G04 Created by KiCad (PCBNEW (5.1.6)-1) date 2022-01-16 18:26:27*
%MOMM*%
%LPD*%
G01*
G04 APERTURE LIST*
%ADD10C,0.120000*%
G04 APERTURE END LIST*
D10*
%TO.C,SW1*%
X19798800Y282800D02*
X20723800Y282800D01*
X19798800Y3982800D02*
X24498800Y3982800D01*
X24598800Y2407800D02*
X24598800Y1857800D01*
X19698800Y2407800D02*
X19698800Y1857800D01*
X23573800Y282800D02*
X24498800Y282800D01*
%TO.C,J1*%
X3549600Y2610400D02*
X4304600Y2610400D01*
X379600Y13155400D02*
X-670400Y13155400D01*
X379600Y865400D02*
X-670400Y865400D01*
X3549600Y2610400D02*
X3549600Y11410400D01*
%TO.C,TP6*%
X18022800Y4749800D02*
G75*
G03*
X18022800Y4749800I-700000J0D01*
G01*
%TO.C,TP5*%
X18022800Y3530600D02*
G75*
G03*
X18022800Y3530600I-700000J0D01*
G01*
%TO.C,TP4*%
X16702000Y9194800D02*
G75*
G03*
X16702000Y9194800I-700000J0D01*
G01*
%TO.C,TP2*%
X14050000Y12300000D02*
G75*
G03*
X14050000Y12300000I-700000J0D01*
G01*
%TO.C,TP1*%
X12450000Y12300000D02*
G75*
G03*
X12450000Y12300000I-700000J0D01*
G01*
%TO.C,D2*%
X8256600Y14025400D02*
X8256600Y11740400D01*
X9726600Y14025400D02*
X8256600Y14025400D01*
X9726600Y11740400D02*
X9726600Y14025400D01*
%TO.C,D1*%
X9526600Y14032600D02*
X9526600Y11747600D01*
X10996600Y14032600D02*
X9526600Y14032600D01*
X10996600Y11747600D02*
X10996600Y14032600D01*
%TO.C,AE1*%
X16842000Y11142600D02*
X23552000Y11142600D01*
X16842000Y13862600D02*
X16842000Y11142600D01*
X23552000Y13862600D02*
X16842000Y13862600D01*
%TO.C,Y1*%
X21564400Y4755600D02*
X21564400Y8655600D01*
X18364400Y4755600D02*
X21564400Y4755600D01*
%TO.C,U3*%
X15780000Y8396599D02*
X15780000Y9046599D01*
X8560000Y1826599D02*
X9210000Y1826599D01*
X8560000Y2476599D02*
X8560000Y1826599D01*
X8560000Y9046599D02*
X9210000Y9046599D01*
X8560000Y8396599D02*
X8560000Y9046599D01*
X15780000Y1826599D02*
X15130000Y1826599D01*
X15780000Y2476599D02*
X15780000Y1826599D01*
%TO.C,D11*%
X24452200Y8278800D02*
X22167200Y8278800D01*
X24452200Y6808800D02*
X24452200Y8278800D01*
X22167200Y6808800D02*
X24452200Y6808800D01*
%TO.C,D10*%
X24452200Y7110000D02*
X22167200Y7110000D01*
X24452200Y5640000D02*
X24452200Y7110000D01*
X22167200Y5640000D02*
X24452200Y5640000D01*
%TO.C,D3*%
X6986600Y14032600D02*
X6986600Y11747600D01*
X8456600Y14032600D02*
X6986600Y14032600D01*
X8456600Y11747600D02*
X8456600Y14032600D01*
%TO.C,C3*%
X12710379Y11736800D02*
X12384821Y11736800D01*
X12710379Y10716800D02*
X12384821Y10716800D01*
%TD*%
M02*
