%TF.GenerationSoftware,KiCad,Pcbnew,(5.1.6)-1*%
%TF.CreationDate,2022-01-16T04:32:38+08:00*%
%TF.ProjectId,esp32s2-uart,65737033-3273-4322-9d75-6172742e6b69,rev?*%
%TF.SameCoordinates,Original*%
%TF.FileFunction,Paste,Bot*%
%TF.FilePolarity,Positive*%
%FSLAX46Y46*%
G04 Gerber Fmt 4.6, Leading zero omitted, Abs format (unit mm)*
G04 Created by KiCad (PCBNEW (5.1.6)-1) date 2022-01-16 04:32:38*
%MOMM*%
%LPD*%
G01*
G04 APERTURE LIST*
%ADD10R,1.160000X0.300000*%
%ADD11R,1.160000X0.600000*%
%ADD12R,0.650000X0.400000*%
%ADD13R,1.060000X0.650000*%
%ADD14R,2.000000X1.500000*%
%ADD15R,2.000000X3.800000*%
G04 APERTURE END LIST*
D10*
%TO.C,J2*%
X5961200Y6250000D03*
X5961200Y6750000D03*
X5961200Y7250000D03*
X5961200Y5250000D03*
X5961200Y5750000D03*
X5961200Y8250000D03*
X5961200Y7750000D03*
X5961200Y8750000D03*
D11*
X5961200Y4600000D03*
X5961200Y4600000D03*
X5961200Y3800000D03*
X5961200Y3800000D03*
X5961200Y9400000D03*
X5961200Y10200000D03*
X5961200Y9400000D03*
X5961200Y10200000D03*
%TD*%
D12*
%TO.C,D5*%
X25334000Y8951200D03*
X25334000Y10251200D03*
X23434000Y9601200D03*
X25334000Y9601200D03*
X23434000Y10251200D03*
X23434000Y8951200D03*
%TD*%
%TO.C,D4*%
X25334000Y3414000D03*
X25334000Y4714000D03*
X23434000Y4064000D03*
X25334000Y4064000D03*
X23434000Y4714000D03*
X23434000Y3414000D03*
%TD*%
D13*
%TO.C,U2*%
X10548800Y8686800D03*
X10548800Y7736800D03*
X10548800Y9636800D03*
X8348800Y9636800D03*
X8348800Y8686800D03*
X8348800Y7736800D03*
%TD*%
%TO.C,J3*%
G36*
G01*
X26356000Y11739600D02*
X26356000Y12339600D01*
G75*
G02*
X26656000Y12639600I300000J0D01*
G01*
X29456000Y12639600D01*
G75*
G02*
X29756000Y12339600I0J-300000D01*
G01*
X29756000Y11739600D01*
G75*
G02*
X29456000Y11439600I-300000J0D01*
G01*
X26656000Y11439600D01*
G75*
G02*
X26356000Y11739600I0J300000D01*
G01*
G37*
G36*
G01*
X26356000Y9199600D02*
X26356000Y9799600D01*
G75*
G02*
X26656000Y10099600I300000J0D01*
G01*
X29456000Y10099600D01*
G75*
G02*
X29756000Y9799600I0J-300000D01*
G01*
X29756000Y9199600D01*
G75*
G02*
X29456000Y8899600I-300000J0D01*
G01*
X26656000Y8899600D01*
G75*
G02*
X26356000Y9199600I0J300000D01*
G01*
G37*
G36*
G01*
X26356000Y6659600D02*
X26356000Y7259600D01*
G75*
G02*
X26656000Y7559600I300000J0D01*
G01*
X29456000Y7559600D01*
G75*
G02*
X29756000Y7259600I0J-300000D01*
G01*
X29756000Y6659600D01*
G75*
G02*
X29456000Y6359600I-300000J0D01*
G01*
X26656000Y6359600D01*
G75*
G02*
X26356000Y6659600I0J300000D01*
G01*
G37*
G36*
G01*
X26356000Y4119600D02*
X26356000Y4719600D01*
G75*
G02*
X26656000Y5019600I300000J0D01*
G01*
X29456000Y5019600D01*
G75*
G02*
X29756000Y4719600I0J-300000D01*
G01*
X29756000Y4119600D01*
G75*
G02*
X29456000Y3819600I-300000J0D01*
G01*
X26656000Y3819600D01*
G75*
G02*
X26356000Y4119600I0J300000D01*
G01*
G37*
G36*
G01*
X26356000Y1579600D02*
X26356000Y2179600D01*
G75*
G02*
X26656000Y2479600I300000J0D01*
G01*
X29456000Y2479600D01*
G75*
G02*
X29756000Y2179600I0J-300000D01*
G01*
X29756000Y1579600D01*
G75*
G02*
X29456000Y1279600I-300000J0D01*
G01*
X26656000Y1279600D01*
G75*
G02*
X26356000Y1579600I0J300000D01*
G01*
G37*
%TD*%
D14*
%TO.C,U1*%
X10896200Y1484600D03*
X10896200Y6084600D03*
X10896200Y3784600D03*
D15*
X17196200Y3784600D03*
%TD*%
%TO.C,R2*%
G36*
G01*
X12720100Y8216400D02*
X12375100Y8216400D01*
G75*
G02*
X12227600Y8363900I0J147500D01*
G01*
X12227600Y8658900D01*
G75*
G02*
X12375100Y8806400I147500J0D01*
G01*
X12720100Y8806400D01*
G75*
G02*
X12867600Y8658900I0J-147500D01*
G01*
X12867600Y8363900D01*
G75*
G02*
X12720100Y8216400I-147500J0D01*
G01*
G37*
G36*
G01*
X12720100Y7246400D02*
X12375100Y7246400D01*
G75*
G02*
X12227600Y7393900I0J147500D01*
G01*
X12227600Y7688900D01*
G75*
G02*
X12375100Y7836400I147500J0D01*
G01*
X12720100Y7836400D01*
G75*
G02*
X12867600Y7688900I0J-147500D01*
G01*
X12867600Y7393900D01*
G75*
G02*
X12720100Y7246400I-147500J0D01*
G01*
G37*
%TD*%
%TO.C,R1*%
G36*
G01*
X11856500Y8216400D02*
X11511500Y8216400D01*
G75*
G02*
X11364000Y8363900I0J147500D01*
G01*
X11364000Y8658900D01*
G75*
G02*
X11511500Y8806400I147500J0D01*
G01*
X11856500Y8806400D01*
G75*
G02*
X12004000Y8658900I0J-147500D01*
G01*
X12004000Y8363900D01*
G75*
G02*
X11856500Y8216400I-147500J0D01*
G01*
G37*
G36*
G01*
X11856500Y7246400D02*
X11511500Y7246400D01*
G75*
G02*
X11364000Y7393900I0J147500D01*
G01*
X11364000Y7688900D01*
G75*
G02*
X11511500Y7836400I147500J0D01*
G01*
X11856500Y7836400D01*
G75*
G02*
X12004000Y7688900I0J-147500D01*
G01*
X12004000Y7393900D01*
G75*
G02*
X11856500Y7246400I-147500J0D01*
G01*
G37*
%TD*%
%TO.C,C2*%
G36*
G01*
X8593250Y2327800D02*
X8080750Y2327800D01*
G75*
G02*
X7862000Y2546550I0J218750D01*
G01*
X7862000Y2984050D01*
G75*
G02*
X8080750Y3202800I218750J0D01*
G01*
X8593250Y3202800D01*
G75*
G02*
X8812000Y2984050I0J-218750D01*
G01*
X8812000Y2546550D01*
G75*
G02*
X8593250Y2327800I-218750J0D01*
G01*
G37*
G36*
G01*
X8593250Y752800D02*
X8080750Y752800D01*
G75*
G02*
X7862000Y971550I0J218750D01*
G01*
X7862000Y1409050D01*
G75*
G02*
X8080750Y1627800I218750J0D01*
G01*
X8593250Y1627800D01*
G75*
G02*
X8812000Y1409050I0J-218750D01*
G01*
X8812000Y971550D01*
G75*
G02*
X8593250Y752800I-218750J0D01*
G01*
G37*
%TD*%
%TO.C,C1*%
G36*
G01*
X8593250Y5629800D02*
X8080750Y5629800D01*
G75*
G02*
X7862000Y5848550I0J218750D01*
G01*
X7862000Y6286050D01*
G75*
G02*
X8080750Y6504800I218750J0D01*
G01*
X8593250Y6504800D01*
G75*
G02*
X8812000Y6286050I0J-218750D01*
G01*
X8812000Y5848550D01*
G75*
G02*
X8593250Y5629800I-218750J0D01*
G01*
G37*
G36*
G01*
X8593250Y4054800D02*
X8080750Y4054800D01*
G75*
G02*
X7862000Y4273550I0J218750D01*
G01*
X7862000Y4711050D01*
G75*
G02*
X8080750Y4929800I218750J0D01*
G01*
X8593250Y4929800D01*
G75*
G02*
X8812000Y4711050I0J-218750D01*
G01*
X8812000Y4273550D01*
G75*
G02*
X8593250Y4054800I-218750J0D01*
G01*
G37*
%TD*%
M02*
